<svg xmlns="http://www.w3.org/2000/svg" viewBox="0 0 500 500"><path d="M292.29 459.71c-1.23-1.06-4-4.39-1.85-8.27.77-1.42 2.41-2.13 3.9-2.75a16 16 0 004.29-2.22c2.32-2 3-5.26 4.5-7.9 1.77-3 5.07-5.29 8.56-5.13 4 .18 7.33 3.45 8.84 7.17s1.57 7.85 1.6 11.87c0 2.22-.08 4.73-1.72 6.23s-3.76 1.4-5.8 1.34l-21.84-.67" fill="#f5f5f5"/><path d="M334.06 399.65h-57.43L287 461.34a6.87 6.87 0 004.91 5.49l.2.06c.17 0 .33.1.51.13a6.45 6.45 0 001.17.13v.06h25.87a7.17 7.17 0 001.41-.14 6.92 6.92 0 005.81-6l5-42.51.22-1.69L334 400zM323.23 439h-5.9l.6-17.9h6.83zm2.1-17.9H331l-2.1 17.9h-5.1zm-16.84 37.75l-.36-15.55h8.49l-.52 15.55zm-9.18-15.55h8.25l.36 15.55h-7.4zm.64 15.55H293c-.66-4.2-1.52-9.66-2.44-15.55h8.14zM299 439l-1.39-17.9h9.46l.41 17.9zm9 0l-.41-17.9h9.74l-.6 17.9zm-.51-22.2l-.38-16.58h10.91l-.55 16.58zm-.57 0h-9.7L296 400.22h10.6zm-10.27 0h-10.23c-.36-2.29-.7-4.45-1-6.4-1.07-6.71-1.47-9.23-1.69-10.18h11.68zm.34 4.3l1.39 17.9h-8.49c-.28-1.81-.57-3.65-.86-5.49-.67-4.23-1.33-8.45-2-12.41zm-7.64 17.9h-5.55l-3-17.9h5.73c.87 5.53 1.84 11.69 2.82 17.9zm.67 4.3c.85 5.38 1.68 10.68 2.44 15.55h-5.33l-2.61-15.55zm26.65 15.55l.52-15.55h5.67l-1.33 15.55zm1.4-42.05l.55-16.58h7.92l-1.42 16.58zm-34.9-16.58c.22 1.2 1.27 7.73 2.68 16.58h-5.77l-2.78-16.58zm43.37 58.63h-4.44l1.33-15.55h4.94zm4.93-42.05h-5.78l1.42-16.58h6.31z" fill="#e0e0e0"/><path d="M217.88 126a33.56 33.56 0 01-.38 8.91l6.54 5-5.76 12.41-8.08-1.74a33.69 33.69 0 01-6.56 6l1.05 8.19-12.84 4.7-4.49-6.94a33.14 33.14 0 01-8.91-.38l-5 6.55L161 163l1.74-8.09a33.36 33.36 0 01-6-6.56l-8.2 1-4.7-12.84 6.94-4.49a33.56 33.56 0 01.38-8.91l-6.55-5 5.77-12.41 8.08 1.74a34 34 0 016.56-6l-1-8.2 12.84-4.7 4.49 6.94a33.56 33.56 0 018.91.38l5.05-6.54L207.63 95l-1.74 8.08a33.64 33.64 0 016 6.56l8.2-1 4.7 12.84-6.91 4.52zm-19.58-1.41a14.67 14.67 0 10-8.74 18.83 14.67 14.67 0 008.74-18.88z" fill="#e0e0e0" fill-rule="evenodd"/><path d="M212.9 51.27a22.27 22.27 0 01-.25 5.89L217 60.5l-3.8 8.2-5.35-1.15a21.94 21.94 0 01-4.33 4l.69 5.42-8.49 3.1-3-4.58a22.27 22.27 0 01-5.89-.25l-3.34 4.32-8.2-3.81 1.15-5.34a22 22 0 01-4-4.34l-5.42.7-3.11-8.49 4.59-3a22.27 22.27 0 01.25-5.89l-4.32-3.34 3.81-8.2L173.6 39a22 22 0 014.34-4l-.7-5.42 8.49-3.11 3 4.59a22.27 22.27 0 015.89.25l3.3-4.31 8.2 3.81-1.12 5.37a21.94 21.94 0 014 4.33l5.42-.69 3.11 8.49-4.59 3zm-12.9-.93a9.7 9.7 0 10-5.78 12.44A9.69 9.69 0 00200 50.34zm71.35 99.49a17.56 17.56 0 01-.2 4.64l3.41 2.63-3 6.47-4.21-.91a18 18 0 01-3.42 3.15l.55 4.27-6.7 2.45-2.33-3.62a17.61 17.61 0 01-4.65-.2l-2.63 3.41-6.46-3 .9-4.21a17.64 17.64 0 01-3.14-3.42l-4.28.55-2.44-6.7 3.61-2.33a17.61 17.61 0 01.2-4.65l-3.41-2.63 3-6.46 4.21.9a17.64 17.64 0 013.42-3.14l-.54-4.28 6.69-2.44 2.34 3.61a17.56 17.56 0 014.64.2l2.63-3.41 6.47 3-.91 4.21a18 18 0 013.15 3.42l4.27-.54 2.45 6.69-3.62 2.34zm-10.2-.74a7.65 7.65 0 10-4.56 9.81 7.65 7.65 0 004.56-9.81z" fill="#f5f5f5" fill-rule="evenodd"/><path d="M265 95.91a20.12 20.12 0 01-.23 5.32l3.91 3-3.44 7.41-4.83-1a19.84 19.84 0 01-3.92 3.61l.63 4.89-7.67 2.81-2.67-4.15a20.09 20.09 0 01-5.32-.22l-3 3.9L231 118l1-4.82a20.07 20.07 0 01-3.6-3.92l-4.9.63-2.8-7.67 4.14-2.68a20.11 20.11 0 01.23-5.32l-3.91-3 3.44-7.4 4.83 1a20.07 20.07 0 013.91-3.61l-.62-4.89 7.67-2.81 2.67 4.15a19.68 19.68 0 015.32.22l3-3.91 7.41 3.44-1 4.83a20.07 20.07 0 013.6 3.92l4.9-.63 2.8 7.67-4.09 2.71zm-11.69-.84a8.76 8.76 0 10-5.22 11.23 8.76 8.76 0 005.23-11.23zM83.46 225.06a20 20 0 01-.23 5.31l3.91 3-3.44 7.43-4.83-1a20 20 0 01-3.91 3.6l.63 4.9-7.67 2.8-2.68-4.14a20.09 20.09 0 01-5.32-.23l-3 3.91-7.41-3.44 1-4.82a20.07 20.07 0 01-3.6-3.92l-4.9.63-2.8-7.67 4.14-2.68a20.09 20.09 0 01.23-5.32l-3.91-3 3.46-7.42 4.87 1a19.79 19.79 0 013.92-3.6l-.63-4.9 7.67-2.8 2.67 4.14a20.09 20.09 0 015.32.23l3-3.91 7.41 3.44-1 4.83a20.07 20.07 0 013.6 3.92l4.9-.63 2.8 7.67-4.14 2.68zm-11.69-.84a8.76 8.76 0 10-5.22 11.23 8.75 8.75 0 005.22-11.23z" fill="#ebebeb" fill-rule="evenodd"/><path fill="#ebebeb" d="M418.4 84.87l7.7 24.36h-5.57l-2.46-8.4.33-15.96z"/><path fill="#ebebeb" d="M318.98 109.21h114.97v6.87H318.98z"/><path fill="#ebebeb" d="M335.01 114.57h5.56v10.55h-5.56zm71.78 0h5.56v10.55h-5.56zm-83.9-37.22s-5.16 3.93-.22 9.12a.47.47 0 00.33.14l45.08-.26s3.85-4.32.66-9.3z"/><path d="M358.12 81.45s-5.62.09-12.54.09S333 81.5 333 81.45s5.62-.09 12.54-.09 12.58.04 12.58.09zm-7.01 1.63s-2.64.09-5.9.09-5.89 0-5.89-.09S342 83 345.21 83s5.9 0 5.9.08zm11.62 3.12s.1-.51.24-1.35a18.44 18.44 0 00-.07-6.57c-.15-.83-.29-1.34-.26-1.35a1.52 1.52 0 01.13.35 8.35 8.35 0 01.26 1 16.5 16.5 0 01.38 3.31 15.61 15.61 0 01-.32 3.31 8.78 8.78 0 01-.24 1 1.63 1.63 0 01-.12.3zm3.36-9.2a1.5 1.5 0 01.2.33 3.69 3.69 0 01.2.4c.07.16.16.34.23.55a9.48 9.48 0 01.43 1.5 11 11 0 01.2 1.89 11.09 11.09 0 01-.17 1.9 10.18 10.18 0 01-.4 1.51c-.07.21-.16.39-.22.55s-.14.3-.2.41a1.31 1.31 0 01-.19.33s.22-.5.49-1.33a12.32 12.32 0 00.36-1.5 10.63 10.63 0 000-3.73 11.76 11.76 0 00-.39-1.49c-.31-.82-.57-1.32-.54-1.32zM330 86.26a1.54 1.54 0 01-.21-.3 3.75 3.75 0 01-.21-.37 5.2 5.2 0 01-.24-.52 8 8 0 01-.44-1.42 8.73 8.73 0 01-.17-1.82A9.15 9.15 0 01329 80a7.22 7.22 0 01.48-1.41 4.87 4.87 0 01.25-.51c.08-.15.16-.28.22-.37a1.3 1.3 0 01.22-.3s-.26.46-.57 1.23a9.34 9.34 0 00-.44 1.4 9.57 9.57 0 00-.2 1.77 9 9 0 00.16 1.78 8.07 8.07 0 00.39 1.41c.25.8.49 1.25.49 1.26zm-4.87 1.1a1.59 1.59 0 01-.23-.34 3.79 3.79 0 01-.23-.42 6.35 6.35 0 01-.28-.58 10.3 10.3 0 01-.51-1.59 11.47 11.47 0 01-.26-2 10.86 10.86 0 01.17-2 9.67 9.67 0 01.44-1.61c.08-.23.17-.42.25-.6a2.83 2.83 0 01.22-.43 2.05 2.05 0 01.21-.35s-.25.53-.55 1.42a10 10 0 00-.41 1.6 12.6 12.6 0 00-.14 2 10.5 10.5 0 00.7 3.58c.35.81.66 1.31.62 1.32z" fill="#e0e0e0"/><path d="M366.43 100.08v8.62h-16.7v-8.62z" fill="#ebebeb"/><path d="M312.51 104.47a1.77 1.77 0 010 .23 5 5 0 005 4.63h49.72v-.63H355.4a4.31 4.31 0 01-4.31-4.31 4.31 4.31 0 014.31-4.31h11.81v-.92l-49.73.17a5 5 0 00-4.97 5.14z" fill="#e0e0e0"/><path d="M366.43 104.51s-3.44.09-7.67.09-7.66 0-7.66-.09 3.43-.1 7.66-.1 7.67.05 7.67.1zm-.24 1.94s-3.25.09-7.26.09-7.25 0-7.25-.09 3.25-.09 7.25-.09 7.26.04 7.26.09zm.24 1.78s-2.92.09-6.52.09-6.53 0-6.53-.09 2.92-.09 6.53-.09 6.52.04 6.52.09zm0-5.47s-3.36.09-7.51.09-7.51 0-7.51-.09 3.36-.09 7.51-.09 7.51.04 7.51.09zm-.24-1.76s-3 .09-6.69.09-6.68 0-6.68-.09 3-.09 6.68-.09 6.69.09 6.69.09z" fill="#e0e0e0"/><path d="M318.54 99.47a11.48 11.48 0 00-1.06 1.26 6.4 6.4 0 00.09 7.39 11.35 11.35 0 001.08 1.23 2.24 2.24 0 01-.35-.26 5.77 5.77 0 01-.83-.89 6.29 6.29 0 01-.09-7.54 5.23 5.23 0 01.81-.91 2.26 2.26 0 01.35-.28z" fill="#f5f5f5"/><path d="M316.86 99.29a10.26 10.26 0 00-1.06 1.26 6.4 6.4 0 00.09 7.39 12.75 12.75 0 001.08 1.23 1.83 1.83 0 01-.36-.27 5.79 5.79 0 01-.83-.89 6.27 6.27 0 01-.08-7.54 5.7 5.7 0 01.8-.91 1.54 1.54 0 01.36-.27zm33.78.18a10.26 10.26 0 00-1.06 1.26 6.4 6.4 0 00.09 7.39 11.35 11.35 0 001.08 1.23 2 2 0 01-.36-.26 7 7 0 01-.83-.89 6.55 6.55 0 01-1.3-3.76 6.45 6.45 0 011.22-3.78 5.7 5.7 0 01.8-.91 2.59 2.59 0 01.36-.28z" fill="#f5f5f5"/><path d="M349 99.29a10.26 10.26 0 00-1.06 1.26 6.4 6.4 0 00.09 7.39 12.75 12.75 0 001.08 1.23 1.83 1.83 0 01-.36-.27 5.79 5.79 0 01-.83-.89 6.45 6.45 0 01-1.3-3.75 6.53 6.53 0 011.21-3.79 6.2 6.2 0 01.81-.91 1.54 1.54 0 01.36-.27zm-24.8 6.39c0-1.17 0-2.34-.05-3.5a2.78 2.78 0 00-.12-.91.88.88 0 00-.67-.56 1.33 1.33 0 00-1.43.68 3.33 3.33 0 00-.35 1.72 25.69 25.69 0 00.14 2.77 3.26 3.26 0 00.32 1.27 1.06 1.06 0 002-.17 3.55 3.55 0 00.16-1.3zm19.3-1.01s-3.59.1-8 .1-8 0-8-.1 3.59-.09 8-.09 8 .04 8 .09zm-22.63-5.54l-.1-8.18h4.46l.15 8.18h-4.51z" fill="#f5f5f5"/><path d="M325 92.41a23.85 23.85 0 01-4.14 0 21.47 21.47 0 014.14 0zm0 1.26a23.85 23.85 0 01-4.14 0 23.85 23.85 0 014.14 0zm0 1.26a23.85 23.85 0 01-4.14 0 23.85 23.85 0 014.14 0zm0 1.26a23.85 23.85 0 01-4.14 0 23.85 23.85 0 014.14 0zm0 1.26a21.47 21.47 0 01-4.14 0 23.85 23.85 0 014.14 0z" fill="#e0e0e0"/><path d="M320.54 90.73h49.33a23.23 23.23 0 010 8.84h-49.12V99h3a1.42 1.42 0 001.42-1.42v-4.92a1.42 1.42 0 00-1.42-1.41h-3.21z" fill="#ebebeb"/><path d="M332.2 95.16h.89a.18.18 0 01.09.16 1.6 1.6 0 01-.05.21 2.33 2.33 0 01-.52.93 1 1 0 01-.7.36h-.1a.83.83 0 01-.56-.41 1.86 1.86 0 01-.24-1 2.8 2.8 0 01.09-.7 2.42 2.42 0 01.49-1 1 1 0 01.74-.39.71.71 0 01.32.07 1 1 0 01.48.6.24.24 0 010 .08.16.16 0 010 .09.16.16 0 01-.15.09h-.06a.2.2 0 01-.11-.11.69.69 0 00-.1-.19.47.47 0 00-.39-.24.5.5 0 00-.27.1 1.39 1.39 0 00-.45.65 2.4 2.4 0 00-.2.93 1.76 1.76 0 00.14.73.49.49 0 00.43.32.56.56 0 00.4-.24 2 2 0 00.42-.77h-.59a.2.2 0 01-.19-.2v-.06a.2.2 0 01.19-.01zm2.8-1.61a.14.14 0 010 .06c0 .12.23 1.14.58 3.06a.29.29 0 010 .09.18.18 0 01-.15.09.15.15 0 01-.13-.12l-.2-1h-1l-.49 1a.17.17 0 01-.15.08h-.1a.19.19 0 01-.08-.15v-.06c0-.06.09-.18.16-.33.7-1.55 1.13-2.46 1.27-2.74a.21.21 0 01.17-.13.2.2 0 01.12.15zm-.22.69l-.55 1.15h.77zm2.97 2.65h-1.58a.31.31 0 01-.08-.19c0-.06.13-1.08.41-3.05a.13.13 0 010-.06.16.16 0 01.16-.11h.08a.16.16 0 01.09.16c0 .13 0 .41-.1.83l-.27 2.06h1.27a.15.15 0 01.09 0 .16.16 0 01.12.16v.06a.21.21 0 01-.19.14zm2.04-3.34a.14.14 0 000 .06c0 .12.23 1.14.58 3.06a.16.16 0 010 .09.15.15 0 01-.14.09.16.16 0 01-.14-.12l-.2-1h-1l-.49 1a.19.19 0 01-.15.08h-.1a.19.19 0 01-.08-.15.13.13 0 010-.06l.15-.33c.71-1.55 1.13-2.46 1.27-2.74a.22.22 0 01.17-.13.22.22 0 01.13.15zm-.23.69l-.56 1.15h.77zm2.59 1.07l.27.74c.16.43.23.65.23.67a.16.16 0 010 .09.14.14 0 01-.14.08.16.16 0 01-.15-.12v-.07c-.08-.19-.21-.53-.4-1l-.84 1.15a.19.19 0 01-.16.09.15.15 0 01-.09 0 .16.16 0 01-.08-.15l.09-.14c.28-.36.59-.8.93-1.3 0-.1-.07-.19-.1-.28-.31-.85-.47-1.29-.47-1.32a.29.29 0 010-.09.15.15 0 01.14-.09.2.2 0 01.17.1l.5 1.34 1-1.35a.19.19 0 01.16-.08.13.13 0 01.08 0 .16.16 0 01.08.15.28.28 0 010 .09zm3.68-1.83h.09a.18.18 0 01.09.16c-.24 1.92-.38 3-.4 3.11a2 2 0 01-.32.82 1.17 1.17 0 01-1 .48 1.08 1.08 0 01-.47-.13 1 1 0 01-.53-.46.19.19 0 010-.08.16.16 0 010-.09.16.16 0 01.15-.09.17.17 0 01.13.07 1 1 0 00.77.44.76.76 0 00.59-.3 1.7 1.7 0 00.32-.94.82.82 0 01-.75.41h-.1a.78.78 0 01-.56-.4 1.82 1.82 0 01-.25-1v-.56c0-.19.1-.73.21-1.28a.07.07 0 010-.05.17.17 0 01.16-.12.15.15 0 01.09 0 .15.15 0 01.09.14 5.93 5.93 0 01-.09.68c-.07.53-.11.87-.11 1a2 2 0 00.13.8c.1.24.25.36.44.36h.06a.82.82 0 00.44-.36 2.11 2.11 0 00.37-.82l.23-1.69a.24.24 0 010-.08.16.16 0 01.22-.02z" fill="#fafafa"/><path d="M368 99.69s-.09-2-.09-4.54 0-4.53.09-4.53.09 2 .09 4.53-.02 4.54-.09 4.54z" fill="#f5f5f5"/><path d="M327.65 99.69s-.09-2-.09-4.54 0-4.53.09-4.53.09 2 .09 4.53-.04 4.54-.09 4.54z" fill="#e0e0e0"/><path d="M368.88 99.69c-.05 0-.09-2-.09-4.54s0-4.53.09-4.53.09 2 .09 4.53-.04 4.54-.09 4.54z" fill="#f5f5f5"/><path d="M326.84 99.69s-.09-2-.09-4.54 0-4.53.09-4.53.09 2 .09 4.53-.04 4.54-.09 4.54zm29.22-7.58l5.21 4.2h.05-.06l-.69.18-4.41 1.15-4-1.69-1.16-.43-.3-.13h-.08.07l.31.12 1.13.47 4 1.67 4.4-1.16.7-.18-5.23-4.18" fill="#e0e0e0"/><path fill="#e0e0e0" d="M360.79 95.65l.28.27.39-.09-.17.36.2.34-.39-.05-.26.29-.07-.39-.36-.15.34-.19.04-.39zm-5 1.66l.19.16.25-.07-.1.24.14.21-.25-.02-.16.2-.06-.25-.24-.09.22-.13.01-.25zm-5.53-2.27l.31.02.2-.24.07.3.29.1-.26.17-.01.31-.24-.2-.3.09.12-.29-.18-.26zm12.87-2.86l.31.02.19-.25.08.3.29.11-.26.17-.02.31-.23-.2-.3.08.11-.28-.17-.26zm-7.33-.2l.2.01.12-.16.05.2.19.06-.17.11-.01.2-.15-.13-.19.06.07-.19-.11-.16z"/><path d="M363.56 92.4s-1.68 0-3.76-.13-3.77-.18-3.77-.2 1.69 0 3.77.13 3.76.18 3.76.2zm1.9-1.74h-50a4.24 4.24 0 010-4.17h50a4.86 4.86 0 010 4.17z" fill="#e0e0e0"/><path fill="#ebebeb" d="M325.78 87.68h27.11v1.52h-27.11z"/><path d="M317.34 90.68a1.62 1.62 0 01-.39-.5 3.8 3.8 0 01-.46-1.48 3.88 3.88 0 01.19-1.54 1.64 1.64 0 01.3-.56 3.81 3.81 0 01-.17.6 4.11 4.11 0 00-.14 1.48 4.72 4.72 0 00.39 1.44c.17.34.31.54.28.56zm1.09 0a1.41 1.41 0 01-.4-.5 3.8 3.8 0 01-.46-1.48 3.69 3.69 0 01.2-1.54 1.31 1.31 0 01.3-.56s-.08.23-.18.6a4.37 4.37 0 00-.13 1.48 4.21 4.21 0 00.39 1.44 5.9 5.9 0 01.28.56z" fill="#e0e0e0"/><path d="M363.43 90.58a8 8 0 00.36-2 9.09 9.09 0 00-.33-2 3.68 3.68 0 01.51 2 3.51 3.51 0 01-.54 2zm-.93-.01c-.05 0 .16-.89.15-2s-.21-2-.15-2a4.9 4.9 0 01.33 2 4.77 4.77 0 01-.33 2z" fill="#f5f5f5"/><path fill="#e0e0e0" d="M384.07 64.85h34.33v44.81h-34.1l-.23-44.81z"/><path fill="#fff" d="M415.72 109.43h-34.14V65.08h34.14z"/><path d="M415.88 64.9v44.69H381.4V64.9zm-.34 44.35v-44h-33.8v44z" fill="#e0e0e0"/><path fill="#fff" d="M385.13 69.88h26.14v34.74h-26.14z"/><path d="M385.08 69.88a1.15 1.15 0 010 .17v34.57l-.08-.08h26.14l-.09.09V69.89l.07.07h-24.28 24.33v34.91H385V70.05z" fill="#e0e0e0"/><path d="M381.49 109.42a5.5 5.5 0 01.47-.75c.3-.45.73-1.06 1.22-1.73s1-1.25 1.31-1.67a3.92 3.92 0 01.59-.65 4 4 0 01-.5.73l-1.26 1.7-1.26 1.7a3.67 3.67 0 01-.57.67zm.08-44.35a25.68 25.68 0 011.83 2.35 24.32 24.32 0 011.68 2.46 26.77 26.77 0 01-1.82-2.35 25.58 25.58 0 01-1.69-2.46z" fill="#e0e0e0"/><path fill="#fff" d="M415.71 65.07l-4.49 4.98"/><path d="M411.22 70.05a32.47 32.47 0 012.18-2.55c1.24-1.37 2.28-2.46 2.31-2.43a28.69 28.69 0 01-2.18 2.55 30.57 30.57 0 01-2.31 2.43zm4.49 39.37a28.82 28.82 0 01-2.21-2.32 29.94 29.94 0 01-2.08-2.43 26.88 26.88 0 012.21 2.32 27.67 27.67 0 012.08 2.43zm-29.38-4.8s2.82-8.71 4.48-9.64a16.06 16.06 0 017.34-2c3.87 0 5.72.26 8 1.82 2.62 1.8 4.39 9.72 4.39 9.72m-16.41-25.84c-2.4.1-3 3.33-2.83 5.17a4.34 4.34 0 01-.09 2.58c-.32.54-.93.86-1.19 1.42a3.09 3.09 0 00.22 2.2 2 2 0 01-.25 2.12 21 21 0 004.15.78 7 7 0 004.06-.95" fill="#e0e0e0"/><path d="M392.41 85.12a4.93 4.93 0 012-6.65 5.93 5.93 0 012.79-.61 10.74 10.74 0 012.83.25 5.11 5.11 0 012.45 1.37 6.33 6.33 0 011.32 4.74 13.26 13.26 0 01-1.66 5.66 1.44 1.44 0 01-.49.57.51.51 0 01-.68-.12" fill="#e0e0e0"/><path d="M397.77 97.59c1.63.11 3.05-1.29 3.23-3.81l.87-12.78-.06.89a1 1 0 00-.93-1l-5.06-.52a3.07 3.07 0 00-3.39 2.88 31.39 31.39 0 00.05 5.78 3.64 3.64 0 002.71 3.28l-.19 2.08a3 3 0 002.75 3.2z" fill="#f5f5f5"/><path d="M393.4 84.86a.37.37 0 00.36.37.36.36 0 00.39-.34.38.38 0 00-.36-.37.36.36 0 00-.39.34zm-.4-.41s.33-.17.73-.17.7.2.74.15 0-.11-.15-.2a1.09 1.09 0 00-.6-.18.93.93 0 00-.58.19c-.14.1-.21.18-.14.21zm4.27.41a.37.37 0 00.36.37.36.36 0 00.39-.34.38.38 0 00-.37-.37.36.36 0 00-.38.34z" fill="#e0e0e0"/><path d="M396.91 84.51s.33-.16.73-.16.7.2.74.15 0-.11-.15-.21a1.09 1.09 0 00-.6-.18 1.07 1.07 0 00-.58.19c-.12.1-.17.19-.14.21zm-1.46 2.99a2.43 2.43 0 00-.65-.12c-.1 0-.2 0-.22-.1a.55.55 0 01.07-.3c.1-.25.2-.51.3-.79a13.88 13.88 0 00.68-2 13.56 13.56 0 00-.84 2l-.29.78a.56.56 0 00-.05.41.26.26 0 00.17.15.52.52 0 00.17 0 2.85 2.85 0 00.66-.03z" fill="#e0e0e0"/><path d="M395.19 92.27a7.43 7.43 0 003.91-1.06 3.92 3.92 0 01-4 1.76z" fill="#ebebeb"/><path d="M395.63 88.47a.72.72 0 01.65-.27.69.69 0 01.46.24.43.43 0 010 .48.49.49 0 01-.53.14 1.49 1.49 0 01-.51-.31.34.34 0 01-.12-.12.14.14 0 010-.15" fill="#e0e0e0"/><path d="M396.64 87.78c-.06 0-.06.43-.44.74s-.84.26-.84.33.1.08.3.09a1.11 1.11 0 00.7-.25.93.93 0 00.34-.63c.02-.18-.03-.29-.06-.28zm.08-3.98c0 .11.45.06.92.12s.85.18.92.08 0-.15-.2-.25a1.43 1.43 0 00-.68-.24 1.52 1.52 0 00-.71.09c-.18.07-.26.15-.25.2zm-3.63-.52c.07.09.35 0 .68 0s.62.06.69 0 0-.13-.14-.22a.93.93 0 00-.56-.15.89.89 0 00-.54.19c-.12.04-.16.13-.13.18z" fill="#e0e0e0"/><path d="M394.71 78.29c2.82-1.59 5.86-.48 8.15 1.82a5.75 5.75 0 001.61 1.39c.71.3 1.66.25 2.08.9s-.17 1.82.19 2.65 1.38 1 1.77 1.72a2.85 2.85 0 010 1.91 1.91 1.91 0 00.28 1.85l-6.09 2.31a1.55 1.55 0 01-.85.09c-.87-.17-.93-1-.85-1.63a2.74 2.74 0 000-1.48c-.24-.53-.87-.82-1.09-1.36-.4-1 .69-2 .56-3a1.93 1.93 0 00-1.24-1.41c-.6-.26-1.26-.34-1.88-.54a5.66 5.66 0 01-3.23-3.24 1.58 1.58 0 01.66-2zM397 377.11a32 32 0 00-13.68-4.7c-2.23-.23-4.67-.17-6.47 1.19a1.3 1.3 0 00-.66 1.18 1.46 1.46 0 00.63.81 19.55 19.55 0 0020.18 1.52m-.35-.38a68 68 0 01-8.83-7.77 22.39 22.39 0 01-5.53-10.24 4.12 4.12 0 01.43-3.43c7 5.5 12.57 12.61 13.93 21.44" fill="#e0e0e0"/><path d="M396.93 377.06a31.79 31.79 0 01.17-11.59 15.66 15.66 0 016.17-9.57c1.22 2.84.7 6.12-.16 9.09a44.17 44.17 0 01-6.11 12.89m6.83 11.55c-4.19.51-7.83 2.71-11 5.55a20.72 20.72 0 00-6.27 10.76c4.1-.25 7.59-3.15 10.12-6.4s4.28-6.81 7.06-9.85m1.59 1.91a27 27 0 013.13-25.58c2.38 8.49 1.51 18.08-3.13 25.58m9.12 10.86a19.55 19.55 0 00-18.7 10.74c-.23.46-.44 1.05-.12 1.46a1.38 1.38 0 001.24.37c3.68-.24 6.95-2.46 9.64-5s5-5.45 8-7.63m-.35-.53a34.87 34.87 0 01-.35-19.45c.69-2.51 1.84-5.14 4.15-6.32a.82.82 0 01.64-.11.83.83 0 01.4.46 11.87 11.87 0 011 5.59 35.11 35.11 0 01-.88 5.65c-.72 3.45-1.11 7.16-3 10.14a20.78 20.78 0 00-1.2 2.23c-.36.75-.36 1-.69 1.62m24.07 3.79c-1.79-6.81.11-15 4.39-20.63.32-.41.74-.85 1.25-.8.79.07 1 1.12 1 1.92a37.32 37.32 0 01-6.6 19.51m2.13 1.48a30 30 0 0024.62-5 19.89 19.89 0 00-13.33-1.64c-4.45 1-8.52 3-11.29 6.64m1.84-4.52c4.63-7.55 13.5-12.48 22.34-12.92-1 3.59-4 6.39-7.31 8.08a40.69 40.69 0 01-10.72 3.13c-1.43.28-3.39.58-4.31 1.71m-3.55-21.98a65 65 0 002.85-13.09 21.77 21.77 0 00-2.6-12.94c-4.33 8.37-4.76 18.14-.38 26.48m14.68-7.81c5.06-9.19 15.37-16.53 25.81-17.56-4 10-15 17.78-25.81 17.56m-3.18 1.8c7.54 1.15 14 6 21 8.89a9.48 9.48 0 004.75.91 3.72 3.72 0 002.33-6.58 10.14 10.14 0 00-3.45-2.09c-7.68-3.2-15.91-3.28-24-1.34" fill="#e0e0e0"/><path d="M445.77 380c1.7.49 2.29 1.37 3.64 2.52a39.28 39.28 0 0015.93 8.19c.61.15 1.41.21 1.71-.34s-.07-1.06-.41-1.49a22 22 0 00-9.62-6.53c-3.68-1.37-6.86-3-11.25-2.67M440.84 348a30.21 30.21 0 0023.16 7.91 1.59 1.59 0 001.05-.38c.59-.64-.11-1.61-.79-2.14-6.8-5.3-15-7.5-23.38-5.35" fill="#e0e0e0"/><path d="M446.68 345.9a32.25 32.25 0 0128.85-4.76 22.9 22.9 0 01-13.75 6 43.49 43.49 0 01-15.1-1.28m-2.32-14.63c-.67-6.79-.23-12.14-.7-19 0-.54-.16-1.2-.67-1.39-.71-.28-1.3.59-1.53 1.32a21.72 21.72 0 002.89 18.88" fill="#e0e0e0"/><path d="M443.87 332a39.92 39.92 0 0011.24-10.93c2.22-3 4.09-6.67 3.59-10.4a10.77 10.77 0 00-8.11 4 22.53 22.53 0 00-4.13 8.31c-.9 3-1.53 6.05-2.59 9m11.04-3.07a90.5 90.5 0 0027.66-16.31c-3.3-1.33-7.09-.53-10.39.8a32.81 32.81 0 00-17.41 15.43m-7.77 6.86c5.1.55 10.29.92 15.35.07S472 333 476.67 331a1.7 1.7 0 001-.74 1.11 1.11 0 00-.35-1.23 2.92 2.92 0 00-1.22-.57c-5.06-1.42-10.51-.75-15.49.92a71.76 71.76 0 00-13.6 6.31m-29.18 12.58c-3.49-7-3.26-15.23-.25-22.48 2.12 3.23 2.38 7.34 2 11.18s-1.56 7.79-1.63 11.65m-14.04-7.37a31.39 31.39 0 00-23.3 9.93 21.78 21.78 0 0012.76-2.37 64.79 64.79 0 0010.94-7.31m-9.75-3.37c-4.26-.35-8.35-.88-12.44.38a14.92 14.92 0 00-9.48 8 22.49 22.49 0 0011.66-2.21 67.5 67.5 0 0010.26-6.21m13.85.18c-3.83-2.51-7.76-5.06-12.21-6.1s-9.62-.27-12.73 3.09c3.61 2.11 8 2.36 12.16 2.36s9.31-.05 13.26 1.34" fill="#e0e0e0"/><path d="M408.43 338.47c-6.54-6.42-9-18-6.39-26.75a40.76 40.76 0 016.39 26.75m17.99-18.2c1.24-2.87 2.1-5.88 3.21-8.8a25.1 25.1 0 014.58-8.11 12 12 0 018.1-4.2 32.58 32.58 0 01-15.73 21.15m-3.41 3.75c-2-2.81-4.4-6.63-7.17-8.72s-6.38-3.37-9.76-2.57a22.71 22.71 0 0016.93 11.29m.65-3.56a48.41 48.41 0 01-3.23-10.45 16.3 16.3 0 011.64-10.63c3.59 6.79 4.75 14.08 1.77 21.16m2.46-21.16c2-6.73 8.19-11.69 14.85-14a5.41 5.41 0 012.6-.39 2.26 2.26 0 011.92 1.6c.24 1.15-.7 2.17-1.59 2.93a50.48 50.48 0 01-17.78 9.82m.07-5.46c.26-4.34.53-8.75 1.94-12.86s4.13-8 8.09-9.76c.67 4.38-1.26 8.74-3.59 12.51s-5.15 7.33-6.55 11.54m0 1.55c-1.68-4.9-1.85-11.13-4.79-15.4-2.05-3-5.34-5-7.11-8.19a12.51 12.51 0 00.41 9.29 26.84 26.84 0 005.44 7.78c2.17 2.32 4 4.07 6.05 6.52" fill="#e0e0e0"/><path d="M426.46 441.35c-.13 0-.25-32.72-.26-73.08s.09-73.08.22-73.08.25 32.72.26 73.08-.09 73.08-.22 73.08z" fill="#e0e0e0"/><path d="M455.05 343.33a6 6 0 01-1.23.47l-3.39 1.14c-2.85 1-6.77 2.38-11 4.12s-8.19 3.28-10.45 5.24a7.73 7.73 0 00-2.1 2.78c-.33.77-.38 1.24-.43 1.23a1.1 1.1 0 010-.34 4.39 4.39 0 01.24-1 7.26 7.26 0 012.05-3 18.25 18.25 0 014.53-2.82c1.82-.84 3.83-1.73 6-2.6 4.27-1.75 8.22-3.12 11.11-4 1.44-.45 2.62-.78 3.44-1a7.77 7.77 0 011.23-.22z" fill="#e0e0e0"/><path d="M464.42 320.31s-.11.14-.34.37l-1.05 1-3.92 3.56-13.05 11.61c-5.09 4.54-9.49 8.87-12.54 12.13-1.53 1.63-2.73 3-3.55 3.92L429 354a2.07 2.07 0 01-.35.36s.08-.15.28-.42.48-.65.88-1.14c.78-1 1.94-2.36 3.44-4a166.22 166.22 0 0112.48-12.25c5.11-4.52 9.76-8.58 13.14-11.51 1.65-1.43 3-2.59 4-3.45l1.1-.92a2.2 2.2 0 01.45-.36z" fill="#e0e0e0"/><path d="M440.56 341.45c-.13-.06.93-2.51 2-5.62s1.58-5.73 1.71-5.7A18.65 18.65 0 01443 336a38.18 38.18 0 01-1.58 3.93 5.88 5.88 0 01-.86 1.52zm-14.07 19.81a5.65 5.65 0 01-.79-.91l-2-2.58c-1.69-2.18-4-5.2-6.64-8.49s-5-6.26-6.76-8.4l-2.06-2.54a6.75 6.75 0 01-.71-1 5.29 5.29 0 01.85.85c.52.57 1.27 1.4 2.17 2.45 1.81 2.08 4.26 5 6.88 8.31s4.92 6.35 6.54 8.59c.81 1.12 1.45 2 1.89 2.67a7.25 7.25 0 01.63 1.05z" fill="#e0e0e0"/><path d="M420.22 353.21a11.52 11.52 0 01-2.63-4.92 14 14 0 01-.6-5h.21c-.09.38-.16.58-.2.57s0-.21 0-.6h.2a22.78 22.78 0 00.84 4.83 35.83 35.83 0 002.18 5.12zm-8.1-10.21a8 8 0 00-1.83-1.07 12.23 12.23 0 00-5.09-.4 32.45 32.45 0 00-5.13.82 13.44 13.44 0 01-2.11.51 7.62 7.62 0 012-.83 23.72 23.72 0 015.18-1 11.12 11.12 0 015.25.56 3.24 3.24 0 011.73 1.41zm-1.92-2.44c0 .07-1.06-.43-2.81-1a28.82 28.82 0 00-7-1.45 29.16 29.16 0 00-7.14.37c-1.81.32-2.91.66-2.94.58a2.77 2.77 0 01.75-.31 16.7 16.7 0 012.12-.6 25 25 0 0114.34 1.09 18.28 18.28 0 012 .91c.48.23.7.38.68.41zm16.22-10.43a61.09 61.09 0 01-2.05-7.12 60.17 60.17 0 01-1.59-7.24 56.75 56.75 0 012.05 7.12 55.84 55.84 0 011.59 7.24z" fill="#e0e0e0"/><path d="M426.55 330.13a33.6 33.6 0 00-2.27-4.27 18.69 18.69 0 00-3.34-3.44 3 3 0 011.29.66 10.46 10.46 0 012.44 2.51 9.35 9.35 0 011.88 4.54zm-.09 93.77c-.06 0-.15-.78-.52-2.17a30.55 30.55 0 00-2.19-5.67 78.32 78.32 0 00-11.6-16.34c-2.59-3-5.1-5.75-7.23-8.42a59.79 59.79 0 01-5.18-7.47 36.14 36.14 0 01-2.61-5.53c-.24-.69-.42-1.22-.51-1.59a2.9 2.9 0 01-.14-.56s.28.75.82 2.08a40.7 40.7 0 002.73 5.43 61.35 61.35 0 005.23 7.36c2.14 2.65 4.65 5.42 7.25 8.39 5.24 5.88 9.34 11.81 11.54 16.51a28 28 0 012.07 5.76c.15.71.25 1.26.29 1.64a3.15 3.15 0 01.05.58z" fill="#e0e0e0"/><path d="M452.29 394.72a13.82 13.82 0 01-1.35.76 29.81 29.81 0 00-3.51 2.32 40.88 40.88 0 00-4.62 4.21c-1.61 1.71-3.28 3.7-5 5.82-3.41 4.27-6.59 8.05-8.5 11.07-1 1.49-1.67 2.76-2.13 3.64a11.7 11.7 0 01-.74 1.36s0-.13.12-.38.24-.61.46-1.06a34 34 0 012-3.74 120.75 120.75 0 018.41-11.18c1.7-2.13 3.39-4.12 5-5.83a36.66 36.66 0 014.73-4.18 24.28 24.28 0 013.62-2.21c.45-.23.82-.37 1.06-.47s.45-.15.45-.13z" fill="#e0e0e0"/><path d="M452.8 404.19a19.22 19.22 0 01-2.86.41 38.27 38.27 0 00-6.79 1.34 20.48 20.48 0 00-6.08 3.19c-1.4 1.08-2.06 2-2.13 1.93a2.34 2.34 0 01.43-.66 10.7 10.7 0 011.49-1.53 18.32 18.32 0 016.14-3.38 30.76 30.76 0 016.9-1.22 15.72 15.72 0 012.9-.08z" fill="#e0e0e0"/><path d="M435.78 410c-.15-.09 1.14-2.06 2.14-4.71s1.16-5 1.33-5a4.46 4.46 0 01-.05 1.53 16.64 16.64 0 01-.83 3.62 17.87 17.87 0 01-1.66 3.32 4.73 4.73 0 01-.93 1.24zm24.88-40.7a1.81 1.81 0 01-.46.25l-1.34.61c-.59.25-1.31.57-2.11 1s-1.75.84-2.75 1.43c-.49.29-1 .58-1.56.89s-1.07.68-1.64 1c-1.16.7-2.31 1.56-3.54 2.43a60.43 60.43 0 00-13.6 14.09c-.84 1.26-1.66 2.44-2.32 3.62-.34.58-.69 1.13-1 1.68s-.57 1.08-.83 1.59c-.56 1-1 2-1.35 2.78s-.69 1.55-.92 2.15l-.57 1.36a3 3 0 01-.22.47 1.81 1.81 0 01.13-.5l.49-1.4a23.1 23.1 0 01.85-2.18c.37-.84.75-1.81 1.29-2.83l.81-1.61c.29-.56.63-1.12 1-1.71.65-1.19 1.47-2.39 2.3-3.67a63.08 63.08 0 016.25-7.67 64.63 64.63 0 017.43-6.48c1.25-.87 2.42-1.72 3.59-2.41.57-.36 1.12-.72 1.67-1l1.58-.87c1-.58 2-1 2.78-1.38a23.37 23.37 0 012.16-.93l1.38-.53a2.74 2.74 0 01.5-.18z" fill="#e0e0e0"/><path d="M440.21 383a3.34 3.34 0 011.13-1.67 7.09 7.09 0 014.53-1.74 12.44 12.44 0 014.77.93 6.88 6.88 0 011.8.88 12.35 12.35 0 01-1.91-.56 14.35 14.35 0 00-4.65-.78 7.35 7.35 0 00-4.32 1.52 15.65 15.65 0 00-1.35 1.42zm-3.05 3.16a17.34 17.34 0 001.28-4.19 16.93 16.93 0 00-.29-4.37c.06 0 .31.43.54 1.22a8.68 8.68 0 01-.74 6.27c-.4.73-.75 1.1-.79 1.07zm-33.3 42.43c.7 12.51 4.47 25.22 10.27 38.08h25.2c5.53-12.73 9-25.43 9.66-38.08z" fill="#e0e0e0"/><path d="M444.9 448.83c0 .13-8.29.23-18.53.23s-18.53-.1-18.53-.23 8.29-.24 18.53-.24 18.53.11 18.53.24zm-.56 4.53c0 .13-7.78.23-17.37.23s-17.38-.1-17.38-.23 7.78-.24 17.38-.24 17.37.11 17.37.24zm-29.81-16.56a70.32 70.32 0 010 11.61 73.37 73.37 0 010-11.61z" fill="#fafafa"/><path d="M428 436.8a78.77 78.77 0 010 12 75.5 75.5 0 010-12zm12.71-.1a78.41 78.41 0 010 12.26 81.8 81.8 0 010-12.26z" fill="#fafafa"/><path d="M448.19 436.8c0 .13-9.73.24-21.74.24s-21.74-.11-21.74-.24 9.73-.23 21.74-.23 21.74.1 21.74.23z" fill="#fafafa"/><path d="M75.12 389.74c4.09-2.11 8.91-2.38 13.45-1.63 2.44.4 5 1.13 6.65 3s2 5.06.07 6.64a6.4 6.4 0 01-4.19 1.06c-3.56 0-7.5-.67-10.34 1.47-1.63 1.22-2.7 3.25-4.64 3.85a4.57 4.57 0 01-5-2.24 7.8 7.8 0 01-.57-5.78 8.82 8.82 0 014.57-6.37zm-9.37-18.09c2.5 3.57 7.36 2.39 9.62.21s3.2-5.35 4.07-8.36c2-6.89 4-14.11 2.51-21.13a11.8 11.8 0 00-2.7-5.74 6.11 6.11 0 00-5.81-1.93c-2.45.64-4 3-5.08 5.33a50.37 50.37 0 00-5 21.61c0 3.48.39 7.13 2.36 10m-6.84 5.13c2.71-3.22 3.23-7.92 2-12a23.08 23.08 0 00-7.08-10.28A38.17 38.17 0 0041.13 347a13.71 13.71 0 00-5.71-1 6 6 0 00-4.79 2.9c-1.34 2.55-.06 5.64 1.33 8.16a97 97 0 008.33 12.69c2.5 3.22 5.36 6.4 9.17 7.85s7.76 1.29 9.78-1.35" fill="#1c84ee"/><path d="M65.58 425.55a8 8 0 00.23-1.63c.11-1.18.26-2.66.43-4.43a64.61 64.61 0 011-6.5 50.45 50.45 0 012.37-7.67 28.15 28.15 0 013.91-6.94 14.7 14.7 0 015-4.12 13.8 13.8 0 014.17-1.3 7.14 7.14 0 001.61-.23 7.42 7.42 0 00-1.64 0 12.48 12.48 0 00-4.35 1.13A14.61 14.61 0 0073 398a28 28 0 00-4 7.07 47 47 0 00-2.34 7.8 55.76 55.76 0 00-.87 6.58c-.14 1.88-.19 3.4-.21 4.46a7 7 0 000 1.64z" fill="#263238"/><path d="M65.88 422.14a2.8 2.8 0 00.05-.76v-2.15c0-1.87 0-4.58.1-7.92.16-6.68.74-13.87 1.85-24 1-9.53 2.47-20.63 4-27.84.32-1.64.64-3.12.94-4.41s.54-2.41.77-3.32.38-1.54.51-2.09a3.13 3.13 0 00.13-.75 3.71 3.71 0 00-.26.71c-.17.54-.37 1.23-.63 2.07s-.56 2-.88 3.29-.7 2.76-1 4.4a248 248 0 00-4.16 25.83c-1.11 10.16-1.61 19.41-1.66 26.11 0 3.35 0 6.06.12 7.94.06.87.1 1.58.13 2.15a3.79 3.79 0 00-.01.74z" fill="#263238"/><path d="M65.93 404.29a13.34 13.34 0 000-2.25 60.86 60.86 0 00-.69-6.09 79.44 79.44 0 00-2-8.89 72.77 72.77 0 00-3.71-10.51 56.12 56.12 0 00-10.91-17 28.17 28.17 0 00-2.57-2.38c-.39-.33-.74-.67-1.1-.93l-1-.68a14.3 14.3 0 00-1.9-1.22 65.94 65.94 0 016.21 5.54 58.79 58.79 0 0110.64 16.93 83.67 83.67 0 013.74 10.41c1 3.27 1.62 6.27 2.11 8.8s.73 4.6.89 6a14.15 14.15 0 00.29 2.27zm-17.25 31.48l1.79 24.49h31.47l1.79-24.49H48.68zm-3.04-9.66h41.84v9.65H45.64z" fill="#263238"/><path fill="#455a64" d="M45.65 459.32V462h41.14v-2.68H45.65zm3.89 7.39L47.61 462h37.68l-2.25 4.71h-33.5z"/><path d="M83.14 443.77s0 .09-.15.23-.27.37-.47.62L80.69 447l-.08.1-.08-.11-4.53-6.26h.26L71.85 447l-.14.2-.15-.19-5.26-6.25h.3l-.29.37-4.7 5.87-.15.2-.15-.21c-1.6-2.25-3.09-4.36-4.43-6.27h.25L51.67 447l-.1.11-.07-.11c-.72-1.21-1.3-2.17-1.71-2.87l-.44-.77a.89.89 0 01-.13-.27 1.6 1.6 0 01.18.24c.13.19.29.44.48.74l1.8 2.82h-.17l5.37-6.3.14-.15.12.17 4.48 6.24h-.3l4.68-5.97.29-.36.15-.19.15.19 5.24 6.26h-.29l4.46-6.23.13-.18.13.18 4.41 6.3h-.16l1.9-2.29c.21-.23.38-.43.51-.59z" fill="#e0e0e0"/><path d="M84.16 435.61c0 .1-7.88.19-17.6.19S49 435.71 49 435.61s7.88-.2 17.61-.2 17.55.09 17.55.2z" fill="#455a64"/><path d="M85.75 462.26c0 .11-8.57.2-19.13.2s-19.14-.09-19.14-.2 8.57-.19 19.14-.19 19.13.09 19.13.19z" fill="#263238"/><path d="M166.2 62.07l-17.73.15a4.41 4.41 0 00-4.27 4.53v3.22a4.4 4.4 0 01-4.2 4.53l-34.56.29a4.4 4.4 0 01-4.34-4.47v-3.21a4.41 4.41 0 00-4.34-4.47h-6.24L75 62.82a14 14 0 00-13.89 14.07L63 300.63a13.94 13.94 0 0014.07 13.82l91.24-.75a14 14 0 0013.84-14.07L180.26 75.9a14 14 0 00-14.06-13.83z" fill="#fff"/><path d="M166.2 62.07h.47a11.22 11.22 0 011.42.1 13.08 13.08 0 015.25 1.76 13.41 13.41 0 013.2 2.55 13.87 13.87 0 012.7 4.14 14.55 14.55 0 011.09 5.65c0 2.06 0 4.26.07 6.58.17 18.59.42 45.47.74 78.7s.65 72.79 1.05 116.72q.06 8.24.14 16.68v4.23a14.7 14.7 0 01-.5 4.26 14.31 14.31 0 01-1.74 3.94 15.13 15.13 0 01-2.88 3.25 14.1 14.1 0 01-8 3.2c-2.92.11-5.83.07-8.76.12l-17.77.15-36.46.3-18.64.16-9.42.07a14.7 14.7 0 01-9.11-2.43 14.23 14.23 0 01-5.6-7.58 15.44 15.44 0 01-.62-4.72v-4.7q-.07-9.39-.16-18.65-.16-18.53-.31-36.47c-.2-23.91-.4-47-.59-68.94s-.35-42.85-.52-62.38Q61.1 94.12 61 80.49v-3.38c0-.56 0-1.13.07-1.69s.13-1.12.27-1.67a14.16 14.16 0 012.88-5.93 14.1 14.1 0 0111.33-5.14l12.16-.1h8.72a4.47 4.47 0 012.75.74 4.56 4.56 0 011.72 2.23 7.4 7.4 0 01.31 2.75v1.36a11.63 11.63 0 00.06 1.33 4.42 4.42 0 001.06 2.32 4.14 4.14 0 002.14 1.31 4.85 4.85 0 001.26.11H112l18.39-.13 8.11-.06h1.9a4.1 4.1 0 001.71-.62 4.45 4.45 0 001.93-2.83 7.92 7.92 0 00.09-1.69v-1.67a8.89 8.89 0 01.07-1.73 4.46 4.46 0 01.51-1.49 4.39 4.39 0 012.21-2 6.82 6.82 0 012.77-.32l9.05-.06h7.46-1.9l-5.56.06-9.05.09a7 7 0 00-2.72.32 4.28 4.28 0 00-2.14 1.94 4.58 4.58 0 00-.49 1.46 8.44 8.44 0 00-.06 1.6v1.67a8.44 8.44 0 01-.09 1.73 4.57 4.57 0 01-2 2.93 4.19 4.19 0 01-1.77.64c-.64.07-1.27 0-1.91 0l-8.11.07-18.4.17h-6.3a4.89 4.89 0 01-1.31-.12 4.32 4.32 0 01-2.27-1.37A4.72 4.72 0 01101 71a10.39 10.39 0 01-.06-1.36v-1.36a7.23 7.23 0 00-.3-2.67A4.33 4.33 0 0099 63.47a4.25 4.25 0 00-2.61-.7h-2.87l-5.85.05-12.16.18a14.34 14.34 0 00-6.07 1.2 14.18 14.18 0 00-5 3.84 13.93 13.93 0 00-2.82 5.82c-.14.53-.17 1.08-.26 1.63s-.06 1.1-.06 1.66v3.38l.25 28.27c.18 19.54.36 40.42.56 62.39s.39 45 .6 68.93q.16 17.94.32 36.47.07 9.27.16 18.66v4.7a15.2 15.2 0 00.61 4.6 13.88 13.88 0 005.44 7.38 14.37 14.37 0 008.88 2.36l9.42-.08 18.65-.15 36.46-.3 17.76-.14c2.93-.05 5.87 0 8.75-.12a13.7 13.7 0 007.81-3.11 14.53 14.53 0 002.8-3.16 13.61 13.61 0 001.7-3.84 14.58 14.58 0 00.49-4.16V295q-.06-8.43-.14-16.67c-.36-43.94-.69-83.5-1-116.73s-.47-60.11-.62-78.7c0-2.32 0-4.52-.05-6.58a14.38 14.38 0 00-1.06-5.61 14 14 0 00-2.66-4.11 13.3 13.3 0 00-3.13-2.6 13 13 0 00-5.22-1.79 10 10 0 00-1.41-.12z" fill="#263238"/><path d="M169.09 84.64c0 .06-2.3.15-5.14.19s-5.15 0-5.16 0 2.31-.14 5.15-.19 5.15-.06 5.15 0zm.05 2.63c0 .06-2.31.15-5.15.2s-5.15 0-5.15 0 2.3-.15 5.15-.2 5.15-.06 5.15 0zm.04 2.64c0 .06-2.3.15-5.14.19s-5.15 0-5.16 0 2.31-.14 5.15-.19 5.15-.06 5.15 0zM75.5 93.74h.81l2.19-.07-.06.06v-2.51a.86.86 0 01.73-.69h1.05a.84.84 0 01.73.84v2.33l-.11-.1h2.78l-.11.1c0-1.11 0-2.27-.06-3.45v-.88a.91.91 0 00-.4-.65l-1.22-1.19-1.18-1.14c-.19-.19-.39-.37-.57-.56s-.36-.38-.58-.42a.74.74 0 00-.64.13c-.16.14-.34.34-.51.51-.34.35-.67.68-1 1-.63.66-1.27 1.26-1.74 1.82a1.93 1.93 0 00-.13 1v3.93a1.29 1.29 0 010-.33v-4.13a1 1 0 01.15-.58c.5-.64 1.11-1.2 1.74-1.87l1-1c.18-.18.32-.36.53-.54a.94.94 0 01.81-.16 1.49 1.49 0 01.67.47l.57.55L82 87.28l1.22 1.18a2 2 0 01.31.33.8.8 0 01.15.47v.88c0 1.19 0 2.34.06 3.46v.11h-2.98v-2.42a.66.66 0 00-.56-.67h-1a.67.67 0 00-.59.55v2.54h-2.92c-.13.04-.2.04-.19.03z" fill="#263238"/><rect x="71.56" y="107.28" width="97.27" height="17.69" rx="7.46" transform="rotate(-.51 118.575 115.12)" fill="#f5f5f5"/><path d="M161.44 124.61l.56-.06a8.34 8.34 0 001.6-.32 7.66 7.66 0 002.33-1.25 7.39 7.39 0 002.2-2.84 7 7 0 00.56-2.06 18.71 18.71 0 00.05-2.39 16.38 16.38 0 00-.14-2.59 7.11 7.11 0 00-1-2.58 7.38 7.38 0 00-4.94-3.37 20.83 20.83 0 00-3.38-.1h-3.59l-76.69.77a7.28 7.28 0 00-7.2 6.74v2.71a8.86 8.86 0 00.3 2.63 7.32 7.32 0 003 4.09 6.87 6.87 0 002.37 1 10.85 10.85 0 002.56.17h5.15l10-.09 34.51-.26 23.26-.15h8.53-2.2l-6.33.09-23.26.26-34.5.35-10 .09h-5.15a11.29 11.29 0 01-2.64-.18 7.38 7.38 0 01-2.48-1A7.69 7.69 0 0171.7 120a9 9 0 01-.32-2.73v-2.74a7.64 7.64 0 017.55-7.07l76.76-.63h3.59a20.57 20.57 0 013.43.11 7.62 7.62 0 015.07 3.49 7.78 7.78 0 011 2.66 15.7 15.7 0 01.12 2.62 19.06 19.06 0 01-.06 2.41 7 7 0 01-.6 2.1 7.32 7.32 0 01-2.25 2.86 7.76 7.76 0 01-2.37 1.24 8.15 8.15 0 01-1.63.29z" fill="#263238"/><path d="M162.86 115.32s0-.28-.17-.76a3.25 3.25 0 00-1.19-1.67 3 3 0 100 4.89 3.18 3.18 0 001.16-1.69c.13-.48.13-.77.16-.77s0 .07 0 .21a2.28 2.28 0 010 .59 3.22 3.22 0 01-1.12 1.88 3.31 3.31 0 01-3.16.55 3.36 3.36 0 01-.06-6.33 3.33 3.33 0 013.17.48 3.15 3.15 0 011.17 1.84 2.61 2.61 0 01.07.6c-.01.11-.01.18-.03.18z" fill="#263238"/><path d="M164.68 120.83a6.2 6.2 0 01-1.59-1.41 6 6 0 01-1.31-1.67 6.43 6.43 0 011.58 1.42 6.64 6.64 0 011.32 1.66z" fill="#263238"/><path d="M84.67 114.67h-1.73v-.45h4v.46H85.2v4.49h-.53zm5.85 2.73h-3.1a1.38 1.38 0 001.47 1.28 1.48 1.48 0 001.13-.5l.29.32a2 2 0 01-3.39-1.25 1.79 1.79 0 011.8-1.9 1.76 1.76 0 011.81 1.86c0 .08-.01.13-.01.19zm-3.1-.35h2.63a1.32 1.32 0 00-2.63 0zm6.41 2.02l-1.2-1.54-1.17 1.56h-.56l1.45-1.92-1.41-1.79h.56l1.13 1.44 1.1-1.46h.55l-1.38 1.81 1.5 1.9zm3.35-.25a1.2 1.2 0 01-.78.26 1 1 0 01-1.09-1.08v-2.24h-.67v-.43h.66v-.81h.51v.81h1.13v.43h-1.15v2.21c0 .44.23.68.64.67a.8.8 0 00.55-.19z" fill="#e0e0e0"/><path fill="#1c84ee" d="M75.883 140.058l21.289-.19.19 21.29-21.29.19zm62.247 1.602c0 .1-7.11.24-15.89.32s-15.9.06-15.9 0 7.11-.24 15.89-.32 15.9-.1 15.9 0z"/><path d="M163.55 148c0 .1-12.8.3-28.58.44s-28.58.17-28.58.07 12.79-.3 28.58-.44 28.58-.21 28.58-.07zm-.63 4.63c0 .1-12.65.29-28.24.43s-28.25.17-28.25.07 12.64-.29 28.24-.43 28.25-.17 28.25-.07zm-23.1 4.65c0 .1-7.46.25-16.67.33s-16.68.06-16.68 0 7.47-.24 16.68-.32 16.67-.11 16.67-.01z" fill="#263238"/><path fill="#1c84ee" d="M76.383 175.307l21.29-.213.213 21.29-21.29.213zm62.067 1.823c0 .1-7.12.25-15.9.32s-15.9.06-15.9 0 7.11-.24 15.9-.32 15.9-.13 15.9 0z"/><path d="M163.86 183.43c0 .1-12.79.3-28.57.44s-28.58.17-28.58.07 12.79-.3 28.57-.43 28.58-.18 28.58-.08zm-.63 4.67c0 .1-12.64.29-28.24.43s-28.24.17-28.24.07 12.64-.29 28.24-.43 28.24-.17 28.24-.07zm-23.1 4.65c0 .1-7.46.25-16.67.33s-16.67.07-16.67 0 7.46-.25 16.67-.33 16.67-.1 16.67 0z" fill="#263238"/><path fill="#455a64" d="M76.513 210.86l21.29-.19.189 21.29-21.29.19z"/><path d="M138.76 212.6c0 .1-7.12.25-15.9.32s-15.9.06-15.9 0 7.12-.24 15.9-.32 15.9-.1 15.9 0z" fill="#1c84ee"/><path d="M164.17 218.91c0 .1-12.79.29-28.57.43s-28.58.17-28.58.07 12.79-.29 28.58-.43 28.57-.17 28.57-.07zm-.63 4.66c0 .1-12.64.29-28.24.43s-28.24.17-28.24.07 12.64-.29 28.24-.43 28.24-.17 28.24-.07zm-23.09 4.65c0 .1-7.47.25-16.67.33s-16.68.07-16.68 0 7.46-.25 16.67-.33 16.68-.1 16.68 0z" fill="#263238"/><path fill="#1c84ee" d="M76.829 246.326l21.289-.19.19 21.29-21.29.189z"/><path d="M139.07 248.07c0 .1-7.11.25-15.89.32s-15.91.06-15.91 0 7.12-.24 15.9-.32 15.9-.07 15.9 0z" fill="#455a64"/><path d="M164.49 254.38c0 .1-12.8.29-28.58.43s-28.58.17-28.58.07 12.79-.29 28.58-.43 28.58-.17 28.58-.07zm-.64 4.62c0 .1-12.64.3-28.23.43s-28.25.17-28.25.07 12.64-.29 28.24-.43 28.24-.13 28.24-.07zm-23.09 4.69c0 .1-7.46.25-16.67.33s-16.68.07-16.68 0 7.46-.25 16.67-.33 16.68-.1 16.68 0z" fill="#263238"/><path fill="#e0e0e0" d="M77.447 281.728l21.29-.213.213 21.29-21.29.213zm61.943 1.812c0 .1-7.12.25-15.9.33s-15.9.05-15.9-.05 7.11-.24 15.89-.32 15.9-.06 15.91.04z"/><path d="M164.8 289.85c0 .1-12.8.29-28.58.43s-28.58.17-28.58.07 12.8-.29 28.58-.43 28.58-.17 28.58-.07zm-.63 4.66c0 .1-12.65.3-28.24.43s-28.24.17-28.25.07 12.65-.29 28.25-.43 28.24-.17 28.24-.07zm-23.1 4.65c0 .1-7.46.25-16.67.33s-16.68.07-16.68 0 7.47-.25 16.68-.33 16.67-.1 16.67 0z" fill="#ebebeb"/><path d="M76.829 246.326l21.289-.19.19 21.29-21.29.189z" opacity=".3"/><path d="M415.37 305.35l-11.84-.08a2.94 2.94 0 00-2.89 3v2.14a2.93 2.93 0 01-2.89 3l-23.06-.16a2.94 2.94 0 01-2.86-3v-2.14a3 3 0 00-2.86-3h-4.16l-10.35-.08a9.3 9.3 0 00-9.38 9.23l-.86 96a9.29 9.29 0 009.24 9.35l60.91.42a9.29 9.29 0 009.38-9.22l.86-96a9.3 9.3 0 00-9.24-9.46z" fill="#fff"/><path d="M415.37 305.35h1a9.57 9.57 0 012.79.76 9.39 9.39 0 015.5 9c-.08 9.71-.2 23.74-.34 41.08-.07 8.67-.15 18.17-.24 28.37q-.06 7.65-.14 15.81c0 2.71 0 5.47-.07 8.26a17.2 17.2 0 01-.31 4.22 9.33 9.33 0 01-2 3.8 9.65 9.65 0 01-3.5 2.55 10.1 10.1 0 01-4.32.73l-8.91-.06-18.37-.12-19-.13-9.74-.07c-1.63 0-3.26 0-4.92-.07a9.37 9.37 0 01-4.66-1.65 9.47 9.47 0 01-3.16-3.8 10.07 10.07 0 01-.86-4.83q0-4.9.09-9.74.09-9.67.17-19c.12-12.48.23-24.52.33-36q.07-8.6.16-16.76c0-2.71.05-5.39.07-8v-3.93a15.53 15.53 0 01.3-3.85 9.38 9.38 0 014.48-5.86 9.24 9.24 0 013.47-1.15c1.22-.13 2.41-.05 3.6-.06l6.95.05h5.03a3 3 0 011.6.4 3.13 3.13 0 011.49 2.76v1.58a3.8 3.8 0 00.16 1.51 2.85 2.85 0 002.14 1.88c1 .1 2 0 3 .07l11 .08 9.6.08a2.9 2.9 0 002.78-2.61v-2a3.82 3.82 0 01.32-1.84 3 3 0 012.82-1.66h7.72l3.9.05h-11.62a2.86 2.86 0 00-2.74 1.63 3.61 3.61 0 00-.31 1.8v2a3 3 0 01-2.86 2.7l-9.61-.06-11-.07c-1 0-2 0-3-.07a3 3 0 01-2.25-2 4 4 0 01-.17-1.56v-1.58a3 3 0 00-1.43-2.63 2.77 2.77 0 00-1.53-.38h-5.02l-6.95-.05a35.69 35.69 0 00-3.58.06 9.22 9.22 0 00-7.8 6.89 15.62 15.62 0 00-.3 3.82v3.92c0 2.63-.05 5.31-.07 8q-.07 8.14-.15 16.75c-.1 11.47-.2 23.51-.31 36q-.09 9.36-.17 19 0 4.83-.09 9.74a10.05 10.05 0 00.83 4.75 9.36 9.36 0 003.1 3.71 9.16 9.16 0 004.56 1.61c1.63.08 3.28 0 4.91.07l9.73.07 19 .13 18.37.14 8.91.06a10.13 10.13 0 004.24-.71 9.53 9.53 0 003.43-2.51 9.15 9.15 0 001.93-3.72 17.1 17.1 0 00.3-4.17c0-2.79.06-5.55.08-8.26q.08-8.16.15-15.81c.09-10.2.18-19.7.26-28.37.17-17.34.31-31.37.41-41.09a9.37 9.37 0 00-1.82-6 9.22 9.22 0 00-3.62-2.94 9.86 9.86 0 00-2.78-.78z" fill="#263238"/><path fill="#1c84ee" d="M352.286 332.66l64.36.157-.11 44.69-64.36-.157z"/><circle cx="384.43" cy="354.98" r="9.34" transform="rotate(-11.33 384.42 354.941)" fill="#fff"/><path fill="#1c84ee" d="M382.13 354.98l.01-4.21 3.64 2.11 3.64 2.11-3.65 2.1-3.65 2.09.01-4.2z"/><path d="M359.15 384v-.72a.09.09 0 01.13-.08l.62.36.62.37a.08.08 0 010 .14l-.62.36-.63.36a.08.08 0 01-.12-.07zm5.85-.51h-.54a.08.08 0 00-.08.09v1a.09.09 0 00.09.08h.53l.83.84v-2.8zm-4 1.41a.14.14 0 01-.14-.14v-1.44a.15.15 0 01.15-.15.15.15 0 01.14.15v1.44a.15.15 0 01-.15.14zm5.17-1.72v1.75a1 1 0 00.61-.88.93.93 0 00-.61-.87z" fill="#263238"/><path d="M366.17 382.51v.37a1.21 1.21 0 01.88 1.17 1.24 1.24 0 01-.89 1.18v.36a1.57 1.57 0 000-3.08zm4.51.98v1.69h-.24v-1.48h-.38v-.21zm.32.56a.16.16 0 01.17-.16.16.16 0 01.16.16.16.16 0 01-.16.17.17.17 0 01-.17-.17zm0 1a.16.16 0 01.17-.16.16.16 0 01.16.16.17.17 0 01-.16.17.17.17 0 01-.17-.22zm.6-.71c0-.56.29-.87.69-.87s.69.32.69.87-.3.87-.69.87-.69-.32-.69-.87zm1.14 0c0-.43-.18-.65-.45-.65s-.45.21-.45.65.18.65.45.65.45-.22.45-.65zm.99-.85v1.7h-.24v-1.49h-.38v-.21zm1.64-.34h.21l-.8 2.28h-.22zm2.22 1.57c0 .31-.26.5-.68.5s-.67-.2-.67-.5a.42.42 0 01.3-.41.39.39 0 01-.23-.37c0-.28.24-.46.61-.46s.61.18.61.46a.38.38 0 01-.24.37.41.41 0 01.3.41zm-.24 0c0-.19-.17-.3-.43-.3s-.43.11-.43.3.16.31.42.31.44-.13.44-.32zm-.8-.76c0 .17.13.27.37.27s.37-.1.37-.27-.14-.27-.37-.27-.37.09-.37.31zm1.26.11a.17.17 0 01.16-.17.17.17 0 010 .34.17.17 0 01-.16-.17zm0 1a.16.16 0 11.32 0 .16.16 0 11-.32 0zm.55-.72c0-.55.3-.86.7-.86s.69.31.69.87-.3.86-.7.86-.69-.31-.69-.87zm1.14 0c0-.44-.18-.66-.44-.66s-.45.22-.45.65.18.66.44.66.45-.21.45-.64zm.5.01c0-.56.3-.87.69-.87s.69.32.69.87-.3.87-.69.87-.69-.32-.69-.87zm1.14 0c0-.43-.18-.65-.45-.65s-.45.21-.45.65.18.65.45.65.43-.22.43-.65zm-28.14.54a.3.3 0 01-.28-.29v-1.49a.29.29 0 01.29-.29.28.28 0 01.28.29v1.49a.29.29 0 01-.29.29zm1.26 0a.28.28 0 01-.28-.29v-1.49a.29.29 0 01.29-.29.29.29 0 01.28.29v1.49a.29.29 0 01-.29.29z" fill="#263238"/><path d="M416.24 381.46l-63.44-.15a.61.61 0 01-.61-.61.61.61 0 01.61-.61l63.45.15a.61.61 0 01.61.61.61.61 0 01-.62.61z" fill="#e0e0e0"/><path d="M376.12 381.36l-23.32-.05a.61.61 0 01-.61-.61.61.61 0 01.61-.61l23.32.05a.53.53 0 01.53.53v.17a.52.52 0 01-.53.52z" fill="#1c84ee"/><path d="M377.27 380.76a1.18 1.18 0 01-1.17 1.16 1.17 1.17 0 111.17-1.16z" fill="#1c84ee"/><path d="M416.35 392.7c0 .15-14.18.23-31.66.19s-31.69-.19-31.69-.34 14.18-.22 31.67-.18 31.68.19 31.68.33zm-.01 6.3c0 .15-14.18.23-31.67.19S353 399 353 398.81s14.17-.22 31.66-.18 31.68.19 31.68.37zm-.02 6.22c0 .15-14.18.23-31.66.19s-31.67-.19-31.67-.34 14.18-.22 31.67-.18 31.66.19 31.66.33z" fill="#263238"/><path d="M415.77 132.56l-11.84-.06a2.94 2.94 0 00-2.88 3v2.14a2.94 2.94 0 01-2.89 3l-23.06-.11a2.93 2.93 0 01-2.86-3v-2.14a3 3 0 00-2.86-3h-14.52a9.29 9.29 0 00-9.36 9.24l-.63 148.94a9.3 9.3 0 009.27 9.32l60.91.28a9.29 9.29 0 009.35-9.24l.6-149.05a9.3 9.3 0 00-9.23-9.32z" fill="#fff"/><path d="M415.77 132.56h.32a6.75 6.75 0 01.94.08 8.82 8.82 0 013.48 1.21 9.42 9.42 0 013.88 4.5 9.7 9.7 0 01.68 3.77v4.38c-.05 12.39-.11 30.3-.19 52.44s-.19 48.49-.31 77.76c0 3.66 0 7.36-.05 11.11-.05 1.86.17 3.79-.4 5.64a10.27 10.27 0 01-1.23 2.59 10.12 10.12 0 01-2 2.1 9.3 9.3 0 01-5.39 2h-5.83l-11.84-.06-24.28-.08-12.42-.05h-6.28a9.82 9.82 0 01-6-1.68 9.45 9.45 0 01-3.67-5.08 10.07 10.07 0 01-.38-3.13v-3.14q0-6.25.06-12.42 0-12.35.1-24.3c.07-15.93.14-31.29.2-45.93s.13-28.55.19-41.56q0-9.77.08-18.84a19.16 19.16 0 01.29-4.48 9.36 9.36 0 012-3.89 9.61 9.61 0 013.48-2.52 10.19 10.19 0 014.14-.71h13.9a3 3 0 011.81.55 3.08 3.08 0 011.09 1.52 5.68 5.68 0 01.16 1.83 15.17 15.17 0 000 1.79 2.91 2.91 0 00.73 1.55 2.73 2.73 0 001.45.85 9.59 9.59 0 001.7.08h3.35l12.26.07h6.67a2.68 2.68 0 001.14-.4 3 3 0 001.3-1.88 17 17 0 00.1-2.23 3.65 3.65 0 01.42-2.07 2.88 2.88 0 011.5-1.28 4.66 4.66 0 011.84-.18h6l5 .05h-11a4.71 4.71 0 00-1.82.18 2.84 2.84 0 00-1.46 1.26 3.56 3.56 0 00-.41 2 15.74 15.74 0 01-.07 2.26 3 3 0 01-1.34 1.94 2.84 2.84 0 01-1.17.42H376.2a10.12 10.12 0 01-1.73-.08 2.86 2.86 0 01-1.51-.89 3 3 0 01-.77-1.61c-.07-.61 0-1.2 0-1.81a5.62 5.62 0 00-.15-1.79 3 3 0 00-1-1.45c-1-.79-2.38-.46-3.64-.54h-12a10 10 0 00-4.07.71 9.41 9.41 0 00-3.42 2.48 9 9 0 00-2 3.83 18.68 18.68 0 00-.29 4.44q0 9.08-.07 18.84c-.05 13-.11 26.92-.17 41.56s-.12 30-.19 45.93q0 11.94-.1 24.3 0 6.17-.05 12.42v3.14a9.62 9.62 0 00.37 3.07 9.26 9.26 0 003.59 5 9.6 9.6 0 005.91 1.64h6.28l12.42.06 24.29.11 11.84.06h5.82a9.18 9.18 0 005.28-1.94 9.92 9.92 0 001.93-2.06 9.65 9.65 0 001.21-2.53c.56-1.81.34-3.72.4-5.59 0-3.75 0-7.45.05-11.11.13-29.27.25-55.62.35-77.76s.19-40 .25-52.44c-.06-3.07.36-5.91-.64-8.13a9.36 9.36 0 00-3.84-4.48 8.83 8.83 0 00-3.47-1.23 9.29 9.29 0 00-.93-.09z" fill="#263238"/><path d="M414.62 154.14c0 .14-12.86.26-28.73.26s-28.73-.12-28.73-.26 12.86-.26 28.73-.26 28.73.12 28.73.26z" fill="#263238"/><path fill="#1c84ee" d="M359.83 250.03h52.22v36.26h-52.22z"/><path d="M307.2 169h-17.73a4.41 4.41 0 00-4.31 4.5v3.22a4.4 4.4 0 01-4.3 4.49H246.3a4.4 4.4 0 01-4.3-4.5v-3.22a4.41 4.41 0 00-4.31-4.5h-21.75A14 14 0 00202 182.88l-.05 223.74a14 14 0 0013.94 13.95l91.26.06a14 14 0 0013.95-13.95l.05-223.75A14 14 0 00307.2 169z" fill="#fff"/><path d="M307.2 169h.47a9.91 9.91 0 011.42.11 13.05 13.05 0 015.23 1.8 13.56 13.56 0 013.18 2.58 13.76 13.76 0 012.66 4.17 14.42 14.42 0 011 5.66v6.58c0 18.58 0 45.47.05 78.7s0 72.8 0 116.73v20.9a15 15 0 01-.54 4.26 13.94 13.94 0 01-1.78 3.93 15.09 15.09 0 01-2.9 3.23 14.08 14.08 0 01-8.06 3.12c-2.92.09-5.83 0-8.77 0h-82.23a14.7 14.7 0 01-9.08-2.51 14.23 14.23 0 01-5.53-7.64 15.4 15.4 0 01-.58-4.72V183.1c0-.57 0-1.13.07-1.7s.15-1.12.29-1.66a14.3 14.3 0 012.93-5.91 14.16 14.16 0 0111.38-5h20.87a4.54 4.54 0 012.75.77 4.67 4.67 0 011.71 2.24 7.67 7.67 0 01.28 2.76v1.36a9.75 9.75 0 000 1.33 4.43 4.43 0 001 2.33 4.17 4.17 0 002.13 1.32 4.46 4.46 0 001.26.13h34.73a4.08 4.08 0 001.7-.6 4.39 4.39 0 002-2.81 8 8 0 00.11-1.69v-1.67a9.88 9.88 0 01.07-1.63 4.73 4.73 0 01.53-1.49 4.4 4.4 0 012.23-2 7 7 0 012.77-.3h16.51-16.51a6.9 6.9 0 00-2.73.3 4.24 4.24 0 00-2.15 1.91 4.61 4.61 0 00-.51 1.46 10.48 10.48 0 00-.07 1.6V176a8.33 8.33 0 01-.11 1.72 4.56 4.56 0 01-2 2.92 4.41 4.41 0 01-1.78.63c-.64.06-1.27 0-1.91 0h-32.7a4.9 4.9 0 01-1.31-.13 4.39 4.39 0 01-2.26-1.39 4.73 4.73 0 01-1.1-2.46 10.4 10.4 0 010-1.36v-1.36a7.44 7.44 0 00-.28-2.67 4.34 4.34 0 00-1.61-2.12 4.2 4.2 0 00-2.61-.72h-20.91a13.81 13.81 0 00-11.15 5 14 14 0 00-2.87 5.79c-.14.53-.18 1.08-.28 1.62s-.07 1.11-.07 1.67V405.9a14.88 14.88 0 00.57 4.61 13.94 13.94 0 005.37 7.43 14.42 14.42 0 008.86 2.44h82.28c2.93 0 5.87.05 8.75 0a13.73 13.73 0 007.84-3 14.59 14.59 0 002.83-3.14 13.57 13.57 0 001.73-3.82 14.57 14.57 0 00.53-4.16v-20.9c0-43.93 0-83.5.07-116.73s.06-60.12.08-78.7v-6.58a14.43 14.43 0 00-1-5.62 14 14 0 00-2.62-4.14 13.45 13.45 0 00-3.15-2.58 13.16 13.16 0 00-5.2-1.83 9 9 0 00-1.41-.13z" fill="#263238"/><path d="M310 193.07c0 .06-2.3.13-5.15.15s-5.15 0-5.15-.07 2.31-.12 5.15-.15 5.15 0 5.15.07zm.06 2.63c0 .06-2.31.13-5.15.16s-5.15 0-5.15-.07 2.3-.13 5.14-.15 5.15 0 5.16.06zm.02 2.64c0 .06-2.31.13-5.15.15s-5.15 0-5.15-.07 2.3-.12 5.15-.15 5.15.01 5.15.07zM212 200h.81l2.2-.05-.01.05v-2.51a.85.85 0 01.74-.68h1a.86.86 0 01.72.85v2.32l-.11-.1h2.78l-.11.1v-4.33a.86.86 0 00-.39-.66l-1.21-1.2-1.17-1.15-.57-.56a1.27 1.27 0 00-.57-.43.76.76 0 00-.64.12l-.51.51-1 1c-.62.65-1.28 1.24-1.75 1.8a2 2 0 00-.14 1v3.58a2.81 2.81 0 010 .36v-4.46a1.13 1.13 0 01.16-.58c.51-.62 1.12-1.18 1.75-1.85l1-1c.18-.18.33-.35.54-.53a.94.94 0 01.8-.16 1.51 1.51 0 01.67.47l.57.56 1.17 1.15 1.22 1.2a3.39 3.39 0 01.31.33.86.86 0 01.14.47v4.45h-2.99v-2.4a.66.66 0 00-.56-.67h-1a.69.69 0 00-.59.54v2.55H212z" fill="#263238"/><path fill="#1c84ee" d="M217.74 342.81h21.29v21.29h-21.29zm62.26 2.3c0 .1-7.12.18-15.9.18s-15.9-.08-15.9-.18 7.11-.19 15.9-.19 15.9.08 15.9.19z"/><path d="M305.34 351.63c0 .1-12.79.18-28.57.18s-28.58-.08-28.58-.18 12.79-.18 28.58-.18 28.57.08 28.57.18zm-.67 4.66c0 .1-12.64.18-28.24.18s-28.24-.08-28.24-.18 12.64-.18 28.24-.18 28.24.08 28.24.18zm-23.13 4.45c0 .1-7.47.18-16.68.18s-16.67-.08-16.67-.18 7.46-.18 16.67-.18 16.68.08 16.68.18z" fill="#263238"/><path d="M217.74 342.81h21.29v21.29h-21.29z" opacity=".3"/><path fill="#1c84ee" d="M217.74 377.47h21.29v21.29h-21.29zm62.26 2.29c0 .1-7.12.18-15.9.18s-15.9-.08-15.9-.18 7.11-.18 15.9-.18 15.9.08 15.9.18z"/><path d="M305.34 386.28c0 .1-12.79.19-28.57.19s-28.58-.09-28.58-.19 12.79-.18 28.58-.18 28.57.08 28.57.18zm-.67 4.72c0 .1-12.64.18-28.24.18s-28.24-.08-28.24-.18 12.64-.19 28.24-.19 28.24.04 28.24.19zm-23.13 4.39c0 .1-7.47.18-16.68.18s-16.67-.08-16.67-.18 7.46-.18 16.67-.18 16.68.08 16.68.18z" fill="#263238"/><path d="M217.74 377.47h21.29v21.29h-21.29z" opacity=".3"/><path fill="#1c84ee" d="M229.434 279.515l.275-49.29 65.58.367-.276 49.29z"/><path fill="#1c84ee" d="M228.58 279.51l23.08-30.52 14.08 19.25 9.68-10.19 18.75 21.82-65.59-.36zm43.31-34.16a5.16 5.16 0 11-5.13-5.19 5.16 5.16 0 015.13 5.19z"/><path d="M228.58 279.51l23.08-30.52 14.08 19.25 9.68-10.19 18.75 21.82-65.59-.36zm43.31-34.16a5.16 5.16 0 11-5.13-5.19 5.16 5.16 0 015.13 5.19z" opacity=".2"/><path d="M304.05 289.24c0 .14-19.05.26-42.54.26s-42.54-.12-42.54-.26S238 289 261.51 289s42.54.1 42.54.24zm0 5.54c0 .14-19.05.26-42.54.26s-42.54-.12-42.54-.26 19.05-.26 42.54-.26 42.54.11 42.54.26z" fill="#263238"/><path d="M275.38 321.32h-27.74a7.27 7.27 0 01-7.27-7.27 7.27 7.27 0 017.27-7.27h27.74a7.26 7.26 0 017.27 7.27 7.26 7.26 0 01-7.27 7.27z" fill="#1c84ee"/><path d="M319.94 328.55c0 .14-26.22.26-58.56.26s-58.57-.12-58.57-.26 26.22-.26 58.57-.26 58.56.11 58.56.26z" fill="#e0e0e0"/><path d="M285.65 218.21c0 .15-10.81.26-24.14.26s-24.13-.11-24.13-.26 10.8-.26 24.13-.26 24.14.12 24.14.26zm4.83 95.84a1.58 1.58 0 11-1.58-1.58 1.58 1.58 0 011.58 1.58z" fill="#1c84ee"/><path d="M354.47 209.81a1.59 1.59 0 01-.38 0h-5.53l-16.36.19.18-.17v62.53c0 15.24-.09 29.55-.12 41.71v.23H332l-31.23-.1-8.76-.06h-3.1 3.1l8.76-.06 31.23-.1-.22.23c0-12.17 0-26.47.05-41.71l.2-62.53v-.18h.17l16.36.08h5.53z" fill="#1c84ee"/><circle cx="385.94" cy="268.09" r="7.58" fill="#fff"/><path fill="#1c84ee" d="M384.07 268.09v-3.41l2.96 1.7 2.96 1.71-2.96 1.71-2.96 1.7v-3.41z"/><path fill="#455a64" d="M359.06 201.559l.217-38.91 51.769.29-.217 38.91z"/><path fill="#263238" d="M358.39 201.55l18.22-24.08 11.12 15.19 7.64-8.05 14.8 17.23-51.78-.29zm34.2-26.96a4.08 4.08 0 11-4.06-4.1 4.09 4.09 0 014.06 4.1z"/><path fill="#455a64" d="M365.1 209.27h40.08v2.68H365.1z"/><path d="M413.88 219.65c0 .15-12.87.27-28.73.27s-28.74-.12-28.74-.27 12.86-.26 28.74-.26 28.73.12 28.73.26zm0 7.35c0 .15-12.87.27-28.73.27s-28.74-.12-28.74-.27 12.86-.26 28.74-.26 28.73.11 28.73.26zm0 7.33c0 .15-12.87.26-28.73.26s-28.74-.11-28.74-.26 12.86-.26 28.74-.26 28.73.12 28.73.26zm0 7.34c0 .15-12.87.26-28.73.26s-28.74-.11-28.74-.26 12.86-.26 28.74-.26 28.73.12 28.73.26z" fill="#263238"/><path d="M356.05 209.81a1.58 1.58 0 11-1.58-1.58 1.58 1.58 0 011.58 1.58zm31.42 81.41a1.54 1.54 0 11-1.53-1.35 1.45 1.45 0 011.53 1.35zm0 35.66a1.54 1.54 0 11-1.53-1.36 1.46 1.46 0 011.53 1.36z" fill="#1c84ee"/><path d="M385.94 326.88c-.14 0-.26-8-.26-17.83s.12-17.83.26-17.83.26 8 .26 17.83-.12 17.83-.26 17.83zM261.37 205.69v-4.15c0-2.72-.05-6.62-.08-11.5 0-9.83 0-23.57-.09-39.38l.25.26h-17.52l-51.26-.07-15.53-.08-4.22-.05h-1.1a1.7 1.7 0 01-.37 0h1.47l4.22-.05 15.53-.08 51.26-.08h17.7v.25c0 15.81-.07 29.55-.09 39.38 0 4.88-.06 8.78-.08 11.5v3.88a1 1 0 01-.09.17z" fill="#1c84ee"/><path d="M263 205.69a1.59 1.59 0 11-1.59-1.58 1.59 1.59 0 011.59 1.58zm-90-55.03a1.58 1.58 0 11-1.58-1.58 1.59 1.59 0 011.58 1.58z" fill="#1c84ee"/><path d="M142.07 153.28l5 6.49s2.42 3.73.54 4.53c-1.66.7-2.74-1.39-2.74-1.39s-1.06-4.76-3.12-3.6c-.29.17.21 3.55.49 5.26a2.46 2.46 0 00.94 1.58l5.48 4.2a7.14 7.14 0 003.5 1.42l1.95.23 1.61 3.2 8.86-3.61-7-9.12-3.79-5.8a2.28 2.28 0 00-2.08-.49l-.87.22-.66-.65a1.48 1.48 0 00-1.48-.39l-.54.15-1.54-1.51c-.49-.49-3.87-3.64-4.5-3.36a1.76 1.76 0 00-.05 2.64z" fill="#ffbe9d"/><path d="M152.12 159.44a7 7 0 00-.51-.73 3.3 3.3 0 00-1.85-1 9.25 9.25 0 01-1.47-1.63 3.06 3.06 0 01-.45-.78 7.6 7.6 0 01.54.72 13.19 13.19 0 001.46 1.55c.18.06.38.1.58.17a3 3 0 011.28.92 2.68 2.68 0 01.34.56.77.77 0 01.08.22zm1.02-1.31a1.14 1.14 0 00-.3-.35 1.11 1.11 0 00-1-.18h-.05l-.11-.11a9.13 9.13 0 01-1.18-1.38 10.61 10.61 0 011.29 1.27l.11.11h-.08a1.16 1.16 0 011.16.26c.16.16.19.38.16.38z" fill="#eb996e"/><path fill="#1c84ee" d="M143 436.09l-3.13 28.68 15.44 2 3.2-28.72-15.51-1.96z"/><path d="M147.61 464.68c.13 0 .85-6.26 1.6-14s1.25-14.05 1.12-14.06-.84 6.26-1.59 14-1.26 14.05-1.13 14.06z" fill="#263238"/><path fill="#263238" d="M140.09 462.8l15.44 1.95-.22 2.02-15.44-2 .22-1.97zm16.24-5.21s-.08-.25-.33-.67a11.49 11.49 0 00-1.22-1.62 10.73 10.73 0 00-2.33-1.94 8.29 8.29 0 00-9.83.78 7.2 7.2 0 00-1.31 1.56c-.25.41-.35.66-.32.68a15.84 15.84 0 011.85-2 8.27 8.27 0 016-1.77 9.56 9.56 0 015.65 2.91c1.23 1.21 1.77 2.12 1.84 2.07z"/><path d="M157.6 446.22l-.35 3.16-15.47-2.07.26-2.38 15.56 1.29z" opacity=".3"/><path fill="#1c84ee" d="M120.78 437.99l1.22 28.83 15.56-.35-1.16-28.89-15.62.41z"/><path d="M129.64 465.56c.13 0-.11-6.32-.54-14.1s-.88-14.08-1-14.07.11 6.32.54 14.1.87 14.07 1 14.07z" fill="#263238"/><path fill="#263238" d="M121.92 464.83l15.56-.4.08 2.04-15.56.35-.08-1.99zm15.27-7.59a2 2 0 00-.43-.61 9.82 9.82 0 00-1.45-1.42 10.63 10.63 0 00-2.59-1.57 8.28 8.28 0 00-9.6 2.25 6.94 6.94 0 00-1.06 1.74 2 2 0 00-.22.72 16.66 16.66 0 011.53-2.25 8.29 8.29 0 015.71-2.66 9.55 9.55 0 016 2c1.38 1.03 2.05 1.85 2.11 1.8z"/><path d="M136.73 445.81l.13 3.17-15.61.28-.1-2.39 15.58-1.06z" opacity=".3"/><path d="M138.21 374.6l-.61-78.9h-30.66s-2.42 19.58-1.27 27.48 9.33 51.53 9.33 51.53 2.65 57.94 4 72.82l19.14-1.72z" fill="#263238"/><path d="M157 279.06a38.81 38.81 0 0111.67 21.87c2.13 13.74-4.31 68.69-4.31 68.69l-5.43 76.19H140l.61-73.36-3.27-54.63-2.13-17.28z" fill="#263238"/><path d="M140.18 368.51a1.39 1.39 0 01-.08-.47c0-.37-.08-.82-.13-1.36-.09-1.27-.21-3-.36-5-.28-4.24-.62-10.1-.92-16.57s-.5-12.34-.57-16.59v-6.36a1.78 1.78 0 01.05-.48 1.5 1.5 0 01.06.48c0 .37 0 .82.06 1.36 0 1.27.11 3 .18 5 .19 4.32.44 10.14.72 16.57s.57 12.26.77 16.58c.08 2.06.15 3.76.2 5v1.36a1.35 1.35 0 01.02.48zm23.14 4.49a22.64 22.64 0 01-2.77-.18 40.79 40.79 0 00-13.2 1.24 21.31 21.31 0 01-2.69.68 11.57 11.57 0 012.59-1 32.25 32.25 0 0113.34-1.24 10.78 10.78 0 012.73.5zm-30.32.7c0 .09-.92-.19-2.39-.41a18.57 18.57 0 00-5.76 0 18.75 18.75 0 00-5.46 1.84c-1.32.69-2.07 1.25-2.12 1.18a7 7 0 011.94-1.5 16.08 16.08 0 015.55-2 15.91 15.91 0 015.92.1 7.3 7.3 0 012.32.79zm.19 1a19.59 19.59 0 01-5.63 2.09 19.68 19.68 0 01-6 .8c0-.15 2.65-.5 5.84-1.3s5.74-1.74 5.79-1.59z" fill="#455a64"/><path d="M139.18 320.88a4.05 4.05 0 01-.7.79c-.23.25-.54.53-.9.85s-.78.7-1.27 1.07a24.35 24.35 0 01-3.6 2.42 16.57 16.57 0 01-5.05 1.87l-.92.22a24 24 0 01-10.28-.05 20.36 20.36 0 01-3-.9 4.2 4.2 0 01-1-.49c0-.09 1.54.54 4.1 1a25.63 25.63 0 0010.1-.1l.9-.22a17 17 0 004.89-1.78 27.12 27.12 0 003.61-2.28c1.99-1.42 3.06-2.47 3.12-2.4zm6.46-19.46s.08.32.2.87.27 1.4.46 2.37c.38 2.09.92 5 1.56 8.41l-.14-.17L156 316l-.29.08 4.15-5.38 1-1.3-.05.19c-.46-4.07-.9-7.9-1.28-11.26l.35.17a21.56 21.56 0 01-5.68 1.83c-1.73.35-3.26.57-4.52.73s-2.26.26-2.94.31a5.59 5.59 0 01-1.05 0 6.64 6.64 0 011-.17l2.92-.43c1.25-.2 2.77-.46 4.48-.84a22.33 22.33 0 005.53-1.85l.3-.17v.34c.4 3.35.85 7.18 1.34 11.25v.11l-.07.08-1 1.3-4.16 5.37-.11.15-.18-.07c-3-1.16-5.76-2.23-8.2-3.19h-.12v-.12c-.55-3.52-1-6.45-1.35-8.58l-.35-2.34a4.18 4.18 0 01-.08-.79zm-16.85 2.74a5.16 5.16 0 010 .8c0 .61 0 1.39-.09 2.36-.1 2.16-.24 5.12-.41 8.68v.12l-.11.06-7.81 4.07-.17.09-.13-.14-4.72-4.89-1.14-1.17-.07-.08V314c0-4.11.07-8 .09-11.34v-.34l.32.13a21.8 21.8 0 005.69 1.24c1.75.19 3.28.28 4.55.34l2.94.11a7.12 7.12 0 011 .06 5.5 5.5 0 01-1 .08h-2.95c-1.27 0-2.82-.08-4.58-.24a21.43 21.43 0 01-5.84-1.19l.32-.21v11.34l-.07-.18 1.13 1.17 4.72 4.9-.3-.05 7.84-4-.12.18c.26-3.5.48-6.41.63-8.53.08-1 .15-1.79.2-2.41a6.65 6.65 0 01.08-.9zm8.91 13.45a8.39 8.39 0 01-.59-2.21 41.35 41.35 0 01-.69-5.48 42.72 42.72 0 010-5.52 8.54 8.54 0 01.33-2.27c.16 0-.11 3.49.15 7.76s.95 7.68.8 7.72zm25.62 4.74a3 3 0 01-.76.37 18.45 18.45 0 01-2.17.73 28.09 28.09 0 01-7.5 1 28.51 28.51 0 01-7.5-1 20.16 20.16 0 01-2.17-.74 2.59 2.59 0 01-.76-.37c0-.09 1.15.31 3 .75a32.54 32.54 0 0014.82 0c1.88-.43 3.01-.83 3.04-.74z" fill="#455a64"/><path d="M115.57 197.41s-13.8 7.54-17.84 9.31l5.51 26.37 8.68 31.63-5.82 33.36s20.46 3.62 30.49 2.32c13.73-1.78 31.23-6.83 31.23-6.83l-13.63-40.67 3.49-28.08-5.85-23.67-14.26-1.69z" fill="#1c84ee"/><path d="M109.09 223.78c.93 1.85 3.06 2.74 5.06 3.29s4.14 1 5.71 2.31c2.78 2.42 2.7 7 5.27 9.61a6.38 6.38 0 006.53 1.58c1.42-.49 2.67-1.48 4.16-1.62 1-.1 2.06.23 3.1.15 2.91-.2 4.62-3.29 5.78-6s2.44-5.71 2.14-8.72c-.44-4.51-4.19-8.15-4.77-12.64-.21-1.67 0-3.36-.15-5s-.92-3.44-2.44-4.14" opacity=".3"/><path d="M164.07 194.2l-10.67-21.37 8.57-5.5s10.73 11.06 12.76 13.21c0 0 12.34 11.38 9.12 16.87a36.18 36.18 0 01-7.08 8.28zm-66.34 12.52c-.19.56-28.72 40-30.25 44.21q-.12.34-.24.72a16.35 16.35 0 003.58 15.68l23.53 26.24 10.28-11.89-16.36-28.83 15.63-17.25z" fill="#1c84ee"/><path d="M115.61 283.44c-1 .06-2.69 1.38-3.46 2a1.3 1.3 0 01-.9.29 1.3 1.3 0 01-1.16-.93l-1-3.43a3.19 3.19 0 00-2.48 1.56l-1.13 1.94-2-1.88-9.15 10.45s3.6 3.89 5.89 3.95 13-8.77 13-8.77l2.85-2.5s2.34-2.85-.46-2.68z" fill="#ffbe9d"/><path d="M145.26 200.37l8.1.36 11.53-8.82 16.32 9s-7.35 7.86-14.27 15.91c-5.59 6.51-9.57 10.58-9.57 10.58z" fill="#1c84ee"/><path d="M152.86 269.85a11 11 0 01-1.16 1.23c-.76.77-1.92 1.84-3.39 3.12a87.46 87.46 0 01-26 15.52c-1.82.68-3.31 1.19-4.35 1.5a9.83 9.83 0 01-1.64.43 11.77 11.77 0 011.57-.62c1-.37 2.49-.93 4.28-1.66a99.91 99.91 0 0013.54-6.73 101 101 0 0012.35-8.72c1.49-1.24 2.68-2.26 3.48-3a9.38 9.38 0 011.32-1.07zm-28.33-4.66c.12.07-2.76 4.74-6.42 10.41s-6.74 10.2-6.86 10.13 2.75-4.74 6.42-10.42 6.74-10.2 6.86-10.12zm31.86-40.01c-.07 0 0-1.16-.13-3s-.22-4.44-.48-7.28-.6-5.4-.95-7.23-.72-2.92-.64-2.95a8.84 8.84 0 011 2.87 53.92 53.92 0 011.11 7.26c.26 2.86.35 5.45.33 7.33a12.2 12.2 0 01-.24 3zM176 192.73a14.47 14.47 0 01-1.88-.77 13.54 13.54 0 00-4.69-1 8.62 8.62 0 00-4.6 1.07c-1.05.63-1.57 1.24-1.64 1.18a4 4 0 011.44-1.49 8.07 8.07 0 014.81-1.28 11.83 11.83 0 014.83 1.21 5.43 5.43 0 011.73 1.08z" fill="#263238"/><path d="M170.83 188.17c0 .2-2.27-.06-4.48 1.37s-2.95 3.63-3.12 3.53a3.2 3.2 0 01.48-1.37 7.2 7.2 0 012.35-2.59 6.79 6.79 0 013.33-1.08 3 3 0 011.44.14z" fill="#263238"/><path d="M125.43 260.39c-.16-.93-.76-1.94-1.71-2s-1.75 1.11-2.17 2.11l-10 23.67-.35 1.54c4-6.37 8-12.49 12-18.86 1.31-1.95 2.6-4.16 2.23-6.46zm37.8-67.62c1.24-1.81 2.3-3.87 4.45-4.32a8.66 8.66 0 016.32 1.13c.41.25.85.68.7 1.14a1 1 0 01-.84.59c-1.89.47-3.85-.08-5.78-.33a5.12 5.12 0 00-4.7 2" opacity=".3"/><path d="M102.22 231.39a14.68 14.68 0 01-1.18-2.74 62.56 62.56 0 01-3.35-14 14.71 14.71 0 01-.18-3 19.57 19.57 0 01.55 2.93c.3 1.81.76 4.31 1.41 7s1.37 5.15 1.92 6.91a18.58 18.58 0 01.83 2.9z" fill="#263238"/><path d="M117.17 205.39l20.25.3-1.9-18.3s1.5.75 1.79-6.75 1-20.22 1-20.22A26.07 26.07 0 00112 163l-1.13.83z" fill="#ffbe9d"/><path d="M113 173.11c-.13-.06-5.11-1.67-5.09 3.46s5.17 4.05 5.18 3.9-.09-7.36-.09-7.36zm24.1-.42c.12-.05 4.73-1.16 4.42 4s-5.38 3.75-5.38 3.61.96-7.61.96-7.61z" fill="#ffbe9d"/><path d="M125.07 151.44s-7-.26-9.49 1c-4.15 2.12-7.37 8-7.43 15.34s3.25 17.21 8.61 22.11 9.6 5.79 9.6 5.79 11.35-6.19 12.62-15.25 2.13-17.78-1.41-22.17-9.93-6.71-12.5-6.82z" fill="#263238"/><path d="M109.09 172.51c-.41-4.64-.8-9.44.66-13.86s5.26-8.43 9.92-8.61a31.77 31.77 0 004.47 0 19.2 19.2 0 003.62-1.33 9.39 9.39 0 016.47-.4 5.63 5.63 0 013.9 4.85 8.33 8.33 0 00.11 2.69A9.13 9.13 0 00140 158a5.75 5.75 0 011 4.16 17.4 17.4 0 01-1.18 4.23L136 176.63" fill="#263238"/><path d="M120.79 175.11a9.22 9.22 0 0113.23 7.3c.33 3 .33 3.52 2.29 5.86 1.21 1.45 2.38 1.36 3.8 2.59a5.68 5.68 0 011.29 6.67c3.67-.18 7.11-.42 8.36 3-5.48-1.13-11 4-16.45 2.85a11.88 11.88 0 01-4.94-1.81c-1.62-1.22-2.5-3.16-3.32-5l-4.41-10c-1-2.25-2-4.59-2-7.05s1.45-5.07 3.83-5.69" fill="#263238"/><path d="M118.58 178.46a7.73 7.73 0 012.66-8.54 7.86 7.86 0 019 .35 7.46 7.46 0 013.07 6.36 4.87 4.87 0 01-4.51 4.5" fill="#1c84ee"/><path d="M130.6 173.49a8.17 8.17 0 00-10.66.53c-2.61 2.62-2.88 8-2.08 11.63.85 3.89 3.23 7.66 2.44 11.56-.48 2.38-2.11 4.79-1.17 7 .77 1.81 2.91 2.6 4.07 4.18 1.71 2.33.86 5.6-.28 8.25s-2.56 5.51-1.76 8.29c.62 2.15 2.43 3.7 3.88 5.41s2.61 4.11 1.64 6.13a5.71 5.71 0 009-5.75 6.84 6.84 0 011.92 4.39 9.21 9.21 0 007-14.13c-1.24-1.94-3.24-3.51-3.66-5.77-.5-2.7 1.45-5.34 1.2-8.07-.23-2.45-2.16-4.38-4.14-5.84s-4.19-2.78-5.47-4.88c-2.07-3.4-1.11-7.73-.31-11.63s1.19-8.5-1.61-11.33" fill="#263238"/><path d="M118.78 175.87c-2.77 1.87-3 5.84-2.57 9.16s.92 7.05-1.12 9.7c-1.38 1.78-3.79 2.81-4.49 5-.86 2.61 1.28 5.23 1.53 8a10.08 10.08 0 01-1.61 5.64 22.58 22.58 0 00-2.52 5.36 5.43 5.43 0 001.41 5.47 7.07 7.07 0 003.48 1.25 43 43 0 0013.35-.05c1.32-5.43 2.64-10.92 2.64-16.5 0-11.1-5.25-21.67-5.39-32.76" fill="#263238"/><path d="M126.55 232.77a3.43 3.43 0 01-.45-.5l-1.24-1.49a65.26 65.26 0 01-4.35-5.65 16.73 16.73 0 01-2.15-4.47 8.9 8.9 0 01.11-5.67 38.23 38.23 0 012.83-5.6c1-1.86 2-3.95 1.75-6.18s-1.69-4.05-2.35-6.17a6.16 6.16 0 01-.3-1.65 5 5 0 01.26-1.64 8.36 8.36 0 011.74-2.59 15.53 15.53 0 001.78-2.23 5.3 5.3 0 00.72-2.5 14 14 0 00-.88-4.74 16.08 16.08 0 01-.85-4 6.23 6.23 0 01.62-3 4.15 4.15 0 011.26-1.5 2.34 2.34 0 01.61-.31 4.44 4.44 0 00-1.68 1.9 5.93 5.93 0 00-.52 2.92 16.66 16.66 0 00.91 3.9 14.19 14.19 0 011 4.86 5.71 5.71 0 01-.75 2.72 14.91 14.91 0 01-1.82 2.31 8.13 8.13 0 00-1.63 2.45 4.46 4.46 0 00-.23 1.46 6.5 6.5 0 00.28 1.5c.62 2 2.15 3.85 2.39 6.28a7.87 7.87 0 01-.43 3.45 20.48 20.48 0 01-1.4 3 37.67 37.67 0 00-2.81 5.5 8.46 8.46 0 00-.15 5.41 16.55 16.55 0 002 4.38c1.61 2.52 3.19 4.38 4.2 5.72.51.67.91 1.19 1.16 1.55a3.28 3.28 0 01.37.58z" fill="#455a64"/><path d="M115.65 194.2a16.09 16.09 0 001.07-3.75 25.2 25.2 0 00.17-4.23c0-1.6-.16-3.38-.06-5.26a12.3 12.3 0 011.29-5.14 7.81 7.81 0 013-3.1A5.49 5.49 0 01124 172a3.66 3.66 0 01.79.13.86.86 0 01.26.1 10.43 10.43 0 01-1 0 5.51 5.51 0 00-2.66.82 7.79 7.79 0 00-2.8 3 12.4 12.4 0 00-1.19 5c-.1 1.84 0 3.6 0 5.22a23.2 23.2 0 01-.28 4.3 10.64 10.64 0 01-.87 2.78 3.09 3.09 0 01-.6.85zm29.43 35.8a4.12 4.12 0 01.07-.64 11.39 11.39 0 000-1.83 23 23 0 00-1.58-6.52c-.57-1.27-1.47-2.6-2.14-4.16a9.85 9.85 0 01-.78-2.55 8.91 8.91 0 010-2.82c.14-1 .36-1.9.48-2.86a9.14 9.14 0 00-.06-2.95 9.82 9.82 0 00-2.89-5.38c-1.52-1.48-3.65-2.16-5.22-3.64a9.65 9.65 0 01-2.71-5.35 19.89 19.89 0 01-.18-5.41c.13-1.69.33-3.25.43-4.67a19.13 19.13 0 00-.05-3.82 5.27 5.27 0 00-1.06-2.61 3.59 3.59 0 00-2-1.24 1.73 1.73 0 01.64.09 3.37 3.37 0 011.56 1 5.25 5.25 0 011.2 2.69 19.48 19.48 0 01.13 3.89c-.08 1.44-.26 3-.37 4.68a19.83 19.83 0 00.22 5.29 9.24 9.24 0 002.59 5.07c1.45 1.38 3.58 2.05 5.23 3.63a10.31 10.31 0 013 5.67 10.1 10.1 0 01.06 3.1c-.14 1-.36 1.95-.5 2.87a8.42 8.42 0 00-.07 2.69 10.42 10.42 0 00.72 2.44c.64 1.54 1.51 2.84 2.09 4.19a21.58 21.58 0 011.44 6.65 8.86 8.86 0 01-.08 1.85c0 .21-.09.37-.11.47s-.05.18-.06.18z" fill="#455a64"/><path d="M141.11 201.77a10.79 10.79 0 00.43-1.24 6.8 6.8 0 00-.2-3.51 7 7 0 00-3.45-3.78 7 7 0 01-2.72-1.78 14.42 14.42 0 01-1.71-3.05 16.76 16.76 0 01-.82-6.61 14.69 14.69 0 00-.63-5.26 6.39 6.39 0 00-2-2.88 12.82 12.82 0 00-1.11-.7s.12 0 .34.08a4 4 0 01.89.46 6.18 6.18 0 012.24 2.91 14.47 14.47 0 01.77 5.39 16.93 16.93 0 00.82 6.41 14.59 14.59 0 001.62 2.92 4.78 4.78 0 001.17 1c.44.27.91.45 1.38.69a7.26 7.26 0 013.58 4.09 6.63 6.63 0 01.05 3.68 3.71 3.71 0 01-.41.92c-.15.18-.23.27-.24.26zm-23.94-27.07a6.71 6.71 0 01-2-1.24 13.85 13.85 0 01-5.14-10.1 6.27 6.27 0 01.21-2.39c.09 0 0 .92.15 2.36a15.34 15.34 0 005 9.85c1.05.97 1.83 1.44 1.78 1.52zm-.93 1.36a10.08 10.08 0 01-3.52-1.82 10.24 10.24 0 01-2.94-2.66 27.85 27.85 0 013.23 2.23 29.34 29.34 0 013.23 2.25zm21.9-13.13a14.94 14.94 0 01-5.84 10.6 39 39 0 003.59-4.93 37.48 37.48 0 002.25-5.67zm1.63 3.98a19.86 19.86 0 01-4.23 9.1c-.13-.09 1.07-2 2.23-4.5s1.85-4.64 2-4.6zM137.41 154a17.66 17.66 0 01-1-1.9 6.27 6.27 0 00-1.35-1.77 3.53 3.53 0 00-2.43-.92 6.65 6.65 0 00-4.36 2.15 12.37 12.37 0 01-1.55 1.47 6.84 6.84 0 011.29-1.73 8.67 8.67 0 011.8-1.54 5.46 5.46 0 012.82-.87 3.9 3.9 0 012.75 1.08 6.16 6.16 0 011.36 2 5.91 5.91 0 01.67 2.03zm-2.01 78.1a3.17 3.17 0 01-.48-.41c-.3-.29-.73-.71-1.26-1.29a16.74 16.74 0 01-1.75-2.27 8 8 0 01-1.25-3.59 6.21 6.21 0 01.29-2.23 11.64 11.64 0 011-2.17c.81-1.42 1.81-2.91 1.86-4.71a10 10 0 00-1.57-5.35c-1-1.7-2.35-3.29-3.54-5.07a14 14 0 01-2.38-5.8 23 23 0 01-.1-5.84c.37-3.69 1.1-6.93 1.21-9.71a18.16 18.16 0 00-.63-6.49c-.47-1.47-.94-2.21-.89-2.24a2.52 2.52 0 01.34.53 9.71 9.71 0 01.74 1.65 17.46 17.46 0 01.81 6.57c-.07 2.81-.76 6.09-1.1 9.74a22.79 22.79 0 00.12 5.7 13.66 13.66 0 002.31 5.6c1.17 1.75 2.53 3.34 3.56 5.11a10.42 10.42 0 011.6 5.62c-.07 2-1.16 3.52-2 4.9a11.89 11.89 0 00-1 2.09 5.64 5.64 0 00-.3 2.08 7.74 7.74 0 001.13 3.46 17.86 17.86 0 001.65 2.29c.5.6.91 1 1.19 1.34a3.09 3.09 0 01.44.49z" fill="#455a64"/><path d="M475.08 466.77c0 .15-100.78.26-225.07.26s-225.09-.11-225.09-.26 100.76-.26 225.09-.26 225.07.12 225.07.26z" fill="#263238"/></svg>